<?xml version="1.0" standalone="no"?>
<!DOCTYPE svg PUBLIC "-//W3C//DTD SVG 1.1//EN" "http://www.w3.org/Graphics/SVG/1.1/DTD/svg11.dtd">
<svg xmlns="http://www.w3.org/2000/svg">
<metadata>Copyright (C) 2018 by original authors @ fontello.com</metadata>
<defs>
<font id="hypico" horiz-adv-x="1000" >
<font-face font-family="hypico" font-weight="400" font-stretch="normal" units-per-em="1000" ascent="850" descent="-150" />
<missing-glyph horiz-adv-x="1000" />
<glyph glyph-name="gear" unicode="&#xe800;" d="M949 461h-94c-15 0-27 8-33 22s-3 29 8 39l66 67c9 9 15 22 15 36 0 14-6 27-15 36l-85 85c-19 19-53 19-72 0l-67-66c-8-9-18-11-25-11-9 0-18 4-25 10-5 5-11 13-11 26v94c0 28-23 51-51 51h-120c-28 0-51-23-51-51v-94c0-23-19-36-36-36-7 0-17 2-25 11l-67 66c-19 19-53 19-72 0l-85-85c-9-9-15-22-15-36 0-14 6-27 15-36l66-67c11-10 14-25 8-39s-18-22-33-22h-93c-29 0-52-23-52-51v-120c0-28 23-51 52-51h93c15 0 28-8 33-22s3-29-8-39l-66-67c-9-9-15-22-15-36 0-14 6-27 15-36l85-85c19-19 53-19 72 0l67 66c8 9 18 11 25 11 17 0 36-13 36-36v-94c0-28 23-51 51-51h120c28 0 51 23 51 51v94c0 23 19 36 36 36 7 0 17-2 25-11l67-66c19-19 53-19 72 0l85 85c9 9 15 22 15 36 0 14-6 27-15 36l-66 67c-11 10-14 25-8 39s18 22 33 22h94c28 0 51 23 51 51v120c0 28-23 51-51 51z m-319-111c0-71-58-130-130-130s-130 59-130 130 59 130 130 130 130-58 130-130z" horiz-adv-x="1000" />

<glyph glyph-name="grid" unicode="&#xe801;" d="M273 819c0 17-13 31-31 31h-209c-17 0-31-14-31-31v-209c0-18 14-32 31-32h209c18 0 32 14 32 32v209h-1z m363 0c0 17-14 31-31 31h-210c-17 0-31-14-31-31v-209c0-18 14-32 31-32h210c17 0 31 14 31 32v209z m362 0c0 17-14 31-31 31h-209c-18 0-31-14-31-31v-209c0-18 13-32 31-32h209c17 0 31 14 31 32v209h0z m-725-364c0 17-13 31-31 31h-209c-17 0-31-14-31-31v-210c0-17 14-31 31-31h209c18 0 32 14 32 31v210h-1z m363 0c0 17-14 31-31 31h-210c-17 0-31-14-31-31v-210c0-17 14-31 31-31h210c17 0 31 14 31 31v210z m362 0c0 17-14 31-31 31h-209c-18 0-31-14-31-31v-210c0-17 13-31 31-31h209c17 0 31 14 31 31v210h0z m-756-333h-209c-17 0-31-14-31-31v-210c0-17 14-31 31-31h209c18 0 32 14 32 31v210c-1 17-14 31-32 31z m363 0h-210c-17 0-31-14-31-31v-210c0-17 14-31 31-31h210c17 0 31 14 31 31v210c0 17-14 31-31 31z m362 0h-209c-18 0-31-14-31-31v-210c0-17 13-31 31-31h209c17 0 31 14 31 31v210c0 17-14 31-31 31z" horiz-adv-x="1000" />

<glyph glyph-name="hashtag" unicode="&#xe802;" d="M972 444v168h-162l32 238h-170l-31-238h-213l31 238h-170l-31-238h-230v-168h208l-24-188h-184v-168h162l-32-238h170l31 238h214l-32-238h170l31 238h230v168h-208l24 188h184z m-377-188h-214l25 188h213l-24-188z" horiz-adv-x="1000" />

<glyph glyph-name="home" unicode="&#xe803;" d="M995 362l-483 482c-7 6-17 6-24 0l-483-482c-7-6-7-17 0-23 3-4 7-5 12-5v-1h116v-465c0-5 2-9 5-12 3-3 7-5 12-5h233c10 0 17 8 17 17v332h200v-332c0-9 8-17 17-17h233c9 0 17 8 17 17v465h117c5 0 9 2 11 6 6 7 7 17 0 23z" horiz-adv-x="1000" />

<glyph glyph-name="info" unicode="&#xe804;" d="M409 623h182c12 0 23 4 32 13 9 9 13 20 13 32v137c0 12-4 23-13 32-9 9-20 13-32 13h-182c-12 0-23-4-32-13-9-9-13-20-13-32v-137c0-12 4-23 13-32 9-9 20-13 32-13z m305-605c-9 9-20 14-32 14h-46v409c0 12-4 23-13 32-9 9-20 13-32 13h-273c-12 0-23-4-32-13-9-9-13-20-13-32v-91c0-12 4-23 13-32 9-9 20-13 32-13h46v-273h-46c-12 0-23-5-32-14-9-9-13-19-13-32v-91c0-12 4-23 13-32 9-9 20-13 32-13h364c12 0 23 4 32 13 9 9 13 20 13 32v91c0 13-4 23-13 32z" horiz-adv-x="1000" />

<glyph glyph-name="id-card-v" unicode="&#xe805;" d="M500 850c-69 0-125-56-125-125v-31c0-17 14-31 31-31h188c17 0 31 14 31 31v31c0 69-56 125-125 125z m313-125h-125v-31c0-52-43-94-94-94h-188c-51 0-93 42-93 94v31h-125c-35 0-63-28-63-62v-751c0-34 28-62 63-62h625c34 0 62 28 62 62v751c0 34-28 62-62 62z m-157-750h-312c-17 0-31 14-31 31 0 18 14 32 31 32h312c18 0 32-14 32-32 0-17-14-31-32-31z m0 125h-312c-17 0-31 14-31 31 0 86 70 157 156 157h31c-69 0-125 56-125 125 0 68 56 125 125 125s125-57 125-125-56-125-125-125h31c86 0 157-71 157-157 0-17-14-31-32-31z" horiz-adv-x="1000" />

<glyph glyph-name="info-coin" unicode="&#xe806;" d="M933 601c-45 77-105 137-182 182-77 45-160 67-251 67-91 0-174-22-251-67-77-45-137-105-182-182-45-77-67-160-67-251 0-91 22-174 67-251 45-77 105-137 182-182 77-45 160-67 251-67s174 22 251 67c77 45 137 105 182 182 45 77 67 160 67 251 0 91-22 174-67 251z m-516 124c0 6 2 11 6 15 3 4 8 6 15 6h125c6 0 11-2 15-6 3-4 5-9 5-15v-104c0-6-2-11-5-15-4-4-9-6-15-6h-125c-7 0-12 2-15 6-4 4-6 9-6 15v104z m250-687c0-7-2-12-6-15-4-4-9-6-15-6h-292c-6 0-11 2-15 6-4 3-6 8-6 15v104c0 6 2 11 6 15 4 4 9 6 15 6h63v208h-63c-6 0-11 2-15 6-4 4-6 9-6 15v104c0 6 2 11 6 15 4 4 9 6 15 6h209c6 0 11-2 15-6 3-4 5-9 5-15v-333h63c6 0 11-2 15-6 4-4 6-9 6-15v-104h0z" horiz-adv-x="1000" />

<glyph glyph-name="id-card-h" unicode="&#xe807;" d="M904 715h-808c-53 0-96-43-96-97v-536c0-53 43-97 96-97h808c53 0 96 44 96 97v536c0 54-43 97-96 97z m-808-488c0 1 0 2 0 3 2 47 36 85 89 106-19 22-30 50-30 81 0 35 15 67 38 90 5 6 11 11 18 15 20 14 44 22 71 22s50-8 71-22c33-23 55-61 55-105 0-31-11-59-30-81 51-20 85-56 89-100 0-3 0-6 0-9 0-19-7-36-20-49-12-13-30-21-50-21 0 0 0 0 0 0h-231c-38 0-68 29-70 67 0 1 0 2 0 3z m808-30c-2-22-20-40-43-40h-257c-16 0-29 9-37 21-4 7-6 14-6 22 0 24 19 43 43 43h203 54c23 0 41-18 43-40 0-1 0-2 0-3s0-2 0-3z m0 150c-2-22-20-40-43-40h-54-203c-24 0-43 19-43 43 0 24 19 43 43 43h203 54c23 0 41-18 43-40 0-1 0-2 0-3 0-1 0-2 0-3z m0 150c-2-22-20-40-43-40h-54-203c-24 0-43 19-43 43 0 8 2 15 6 22 8 12 21 21 37 21h257c23 0 41-18 43-40 0-1 0-2 0-3s0-2 0-3z" horiz-adv-x="1000" />

<glyph glyph-name="invoice" unicode="&#xe808;" d="M849 847c-15 6-33 3-45-9l-54-54-54 54c-16 16-42 16-59 0l-54-54-53 54c-17 16-43 16-59 0l-54-54-54 54c-16 16-43 16-59 0l-54-54-54 54c-12 12-30 15-45 9-16-7-26-22-26-39v-916c0-23 19-42 42-42h666c23 0 42 19 42 42v916c0 17-10 32-26 39z m-266-830h-250c-23 0-41 18-41 41 0 23 18 42 41 42h250c23 0 42-19 42-42 0-23-19-41-42-41z m84 166h-334c-23 0-41 19-41 42 0 23 18 42 41 42h334c23 0 41-19 41-42 0-23-18-42-41-42z m-375 209c0 23 18 41 41 41h250c23 0 42-18 42-41 0-23-19-42-42-42h-250c-23 0-41 19-41 42z m375 125h-334c-23 0-41 18-41 41 0 23 18 42 41 42h334c23 0 41-19 41-42 0-23-18-41-41-41z" horiz-adv-x="1000" />

<glyph glyph-name="logout" unicode="&#xe809;" d="M408 3c-1 4-2 6-1 9 0 2-1 4-5 5-3 2-5 3-5 4 0 1-2 1-7 2-5 0-7 1-7 1h-9-7-183c-28 0-52 10-72 30-20 19-30 44-30 72v449c0 28 10 52 30 72 20 20 44 30 72 30h204c5 0 10 1 13 4 3 2 5 7 6 12 1 6 2 11 2 15 0 5 0 10 0 17-1 7-1 11-1 13 0 5-2 10-6 14-4 4-9 6-14 6h-204c-51 0-94-18-130-54-36-36-54-79-54-129v-449c0-51 18-94 54-130 36-36 79-54 130-54h204c5 0 10 1 13 4 3 3 5 7 6 12 1 6 2 11 2 15 0 5 0 10 0 17-1 7-1 11-1 13z m580 376l-347 347c-8 8-18 12-29 12-11 0-20-4-28-12-8-8-13-18-13-29v-184h-285c-11 0-21-4-29-12-8-8-12-17-12-29v-244c0-11 4-21 12-29 8-8 18-12 29-12h285v-184c0-11 5-21 13-29 8-8 17-12 28-12 11 0 21 4 29 12l347 347c8 8 12 18 12 29 0 11-4 21-12 29z" horiz-adv-x="1000" />

<glyph glyph-name="money-bag" unicode="&#xe80a;" d="M645 665l90 105c30 30 10 80-35 80h-400c-45 0-65-50-40-80l90-105c-200-100-350-380-350-570 0-235 225-245 500-245s500 10 500 245c0 190-150 470-355 570z m-145-365c20 0 35-5 50-10 60-20 100-75 100-140 0-65-40-120-100-140v-60h-100v60c-60 20-100 75-100 140h100c0-30 20-50 50-50s50 20 50 50c0 30-20 50-50 50-20 0-35 5-50 10-60 20-100 75-100 140 0 65 40 120 100 140v60h100v-60c60-20 100-75 100-140h-100c0 30-20 50-50 50s-50-20-50-50 20-50 50-50z" horiz-adv-x="1000" />

<glyph glyph-name="math" unicode="&#xe80b;" d="M833 447c0-23-18-41-41-41h-182v-181c0-23-19-42-42-42h-136c-23 0-42 19-42 42v181h-182c-23 0-41 18-41 41v138c0 23 18 41 41 41h182v182c0 23 19 42 42 42h136c23 0 42-19 42-42v-182h182c23 0 41-18 41-41l0-138 0 0z m0-555c0-23-18-42-41-42h-584c-23 0-41 19-41 42v83c0 23 18 42 41 42h584c23 0 41-19 41-42v-83z" horiz-adv-x="1000" />

<glyph glyph-name="money" unicode="&#xe80c;" d="M753 334c-30 23-74 42-134 57l-47 10v197c2-1 3-2 4-2s2-1 2-2c40-19 61-52 63-98h157c-3 82-33 144-92 187-38 29-82 48-134 57v110h-144v-106c-68-8-121-29-161-65-51-46-77-104-77-174 0-76 27-133 79-169 29-21 82-39 159-57v-211c-29 8-50 21-65 38-16 19-27 45-31 77h-154c0-80 29-143 87-189 42-32 96-53 163-63v-81h144v79c71 10 127 32 169 67 54 48 81 107 81 179 0 69-23 122-69 159z m-325 101c-23 7-39 13-49 19-26 13-39 34-39 63 0 31 13 55 39 71 14 8 30 15 49 20v-173z m169-363c-7-3-15-5-25-7v181c26-8 46-16 59-24 23-15 35-35 35-61 0-43-23-73-69-89z" horiz-adv-x="1000" />

<glyph glyph-name="list" unicode="&#xe80d;" d="M995 690c-6 9-15 16-26 18l-566 137c-19 3-37-7-44-25l-216-548 72-27 205 522 492-126c-31-95-104-294-174-479-61-162-96-217-163-228 0 0 0 0 0 0-137-19-134 155-134 155l-437 176c-31-196 120-244 120-244l320-145c0 0 50-24 104-21 146 3 198 109 262 280 93 246 187 521 188 524 4 10 2 22-3 31z m-259-221c4-1 7-2 11-2 16 0 32 12 37 29 5 20-7 41-27 47l-167 51c-20 6-41-6-47-27-5-20 7-41 27-47l166-51z m-259-56c-7-20 4-41 24-48l165-59c4-1 8-2 12-2 16 0 32 10 37 26 7 20-4 42-24 49l-166 59c-20 6-42-4-48-25z m-15-135c-20 6-42-5-48-25-7-20 4-42 24-48l166-59c4-1 8-2 12-2 16 0 31 10 36 26 7 20-4 42-24 49l-166 59z m-6 361c24 0 43-19 43-42 0-22-19-41-43-41-23 0-43 19-43 41 0 23 20 42 43 42z m-60-154c23 0 42-19 42-41 0-23-19-42-42-42-24 0-43 19-43 42 0 22 19 41 43 41z m-64-159c23 0 42-18 42-41 0-23-19-41-42-41-24 0-43 18-43 41 0 23 19 41 43 41z" horiz-adv-x="1000" />

<glyph glyph-name="password" unicode="&#xe80e;" d="M0 614v-528h1000v528h-1000z m312-314c7-7 12-14 16-18l-43-29-38 63c-12-21-25-42-40-66l-43 34c14 15 28 29 43 44 6 5 10 9 11 10-5 1-18 4-41 10-16 4-27 7-32 9l18 50c24-10 47-21 66-33-5 31-7 56-7 76h50c0-14-3-40-8-77 4 2 12 5 25 11 17 8 33 15 47 20l15-52c-21-4-45-9-73-14l34-38z m252 0c7-7 12-14 16-19l-43-28-38 63c-12-21-25-42-40-66l-43 34c14 15 28 29 43 44 6 5 9 9 11 10-5 1-18 4-41 10-16 4-27 7-32 9l17 50c25-10 47-22 67-34-5 32-7 57-7 76h50c0-13-3-39-8-76 4 2 12 5 25 11 17 8 33 15 47 20l15-52c-21-4-46-9-73-14l34-38z m252 0c7-7 12-14 16-19l-43-28-39 63c-11-21-24-42-39-66l-43 34c13 15 28 29 43 44 5 5 9 9 11 10-5 1-19 4-41 10-16 4-27 7-32 9l17 50c25-10 47-21 66-33-4 31-6 56-6 76h50c0-14-3-40-8-77 4 2 12 5 24 11 18 8 33 15 48 20l15-52c-21-4-46-9-73-14l34-38z" horiz-adv-x="1000" />

<glyph glyph-name="locked" unicode="&#xe80f;" d="M825 482h-17v61c0 169-138 307-308 307-169 0-307-138-307-307v-61h-18c-11 0-21-10-21-22v-589c0-11 10-21 21-21h650c12 0 21 10 21 21v589c0 12-9 22-21 22z m-549 61c0 123 100 224 224 224s224-101 224-224v-61h-448v61z m278-408c0-13 0-90 0-90 0-30-24-54-54-54-30 0-54 24-54 54 0 0 0 77 0 90 0 29-56 27-56 96 0 60 49 110 110 110s110-50 110-110c0-69-56-67-56-96z" horiz-adv-x="1000" />

<glyph glyph-name="minus" unicode="&#xe810;" d="M1000 445v-190c0-15-12-26-26-26h-948c-14 0-26 11-26 26v190c0 15 12 26 26 26h948c14 0 26-11 26-26z" horiz-adv-x="1000" />

<glyph glyph-name="new-user" unicode="&#xe811;" d="M440 343c141 0 192 141 205 257 16 143-51 250-205 250-154 0-221-107-205-250 14-116 64-257 205-257z m308-58c4 0 9-1 13-1-6 10-14 18-23 25-27 20-62 27-93 39-15 6-29 12-41 18-43-47-99-71-164-71-65 0-121 24-163 71-13-6-27-12-42-18-31-12-66-19-93-39-47-35-59-114-68-167-8-44-13-90-15-135-1-34 16-39 45-50 37-13 74-23 112-31 73-15 149-27 224-28 36 1 73 4 109 8-27 39-42 86-42 137 0 133 108 242 241 242z m0-49c-107 0-193-86-193-193s86-193 193-193 193 86 193 193c0 107-86 193-193 193z m84-226h-51v-51c0-19-15-34-33-34-18 0-33 15-33 34v51h-52c-18 0-33 15-33 33 0 18 15 33 33 33h52v52c0 18 15 33 33 33 18 0 33-15 33-33v-52h51c19 0 34-15 34-33 0-18-15-33-34-33z" horiz-adv-x="1000" />

<glyph glyph-name="numbered" unicode="&#xe812;" d="M148 850h-59l-77-71 40-43c16 14 25 24 28 30h1v-6c0-15 0-38 0-68 0-30 0-53 0-69h-60v-55h188v55h-61v227z m845-144c-4 4-8 6-13 6h-682c-4 0-9-2-12-6-4-3-6-8-6-12v-108c0-5 2-9 6-13 3-3 8-5 12-5h682c5 0 9 2 13 5 4 4 5 8 5 13v108c0 4-1 9-5 12z m-848-683l53 65v49h-187v-85h60v30c6 0 15 0 27 0 12 1 21 1 27 1v-1c-7-7-14-14-21-21-6-8-14-18-23-31-10-12-16-20-19-24l15-32c39 3 59-7 59-31 0-10-4-18-12-24-8-5-18-8-29-8-21 0-41 8-59 25l-32-49c25-25 57-37 96-37 31 0 56 9 76 26 21 17 31 41 31 70 0 19-6 36-17 50-11 14-26 23-45 27z m4 242h-71c0 9 7 19 20 29 13 10 27 20 42 28 16 9 30 21 42 36 13 16 19 33 19 52 0 26-9 47-28 63-18 15-41 23-69 23-21 0-41-5-59-16-18-10-31-25-40-44l48-34c13 22 28 33 45 33 10 0 17-3 22-8 6-5 8-12 8-21 0-9-4-17-13-25-8-9-19-17-31-25-13-8-25-17-37-26-13-10-23-23-32-39-9-15-13-33-13-52 0-6 1-17 3-30h203v89 0h-59v-33z m831-128h-682c-5 0-9-1-12-5-4-3-6-8-6-13v-107c0-5 2-9 6-13 3-4 8-5 12-5h682c5 0 9 1 13 5 4 4 5 8 5 13v107c0 5-1 9-5 13-4 3-8 5-13 5z m0 287h-682c-5 0-9-1-12-5-4-3-6-7-6-13v-107c0-5 2-9 6-13 3-3 8-5 12-5h682c5 0 9 2 13 5 4 4 5 8 5 13v107c0 5-1 9-5 13-4 4-8 5-13 5z" horiz-adv-x="1000" />

<glyph glyph-name="piggy" unicode="&#xe813;" d="M658 690h-238c-2 0-3 0-5 0-34 52-92 84-155 84h-30v-142c-56-38-101-92-126-155h-104v-259h104c36-89 109-159 201-192v-100h195v80h78v-80h196v100c61 22 116 62 156 114 46 60 70 132 70 208 0 188-153 342-342 342z m-369-271h-59v58h59v-58z m348 95h-196v58h196v-58z" horiz-adv-x="1000" />

<glyph glyph-name="offline" unicode="&#xe814;" d="M605 23c0-58-46-104-104-104s-104 46-104 104c0 57 47 104 104 104s104-47 104-104z m59 365c-32 14-66 23-101 28l177-176 58 58c-39 39-84 69-134 90z m-341-7c-46-21-88-51-124-88l128-124c38 39 85 63 137 71l-141 141z m-212 212c-40-26-77-56-111-90l126-126c34 34 73 63 114 87l-129 129z m665 62c-87 37-180 55-275 55-69 0-137-10-202-29l151-151c17 1 34 2 51 2 141 0 274-54 374-153l125 126c-65 64-140 115-224 150z m-715 54l695-696 73 72-696 696-72-72z" horiz-adv-x="1000" />

<glyph glyph-name="more" unicode="&#xe815;" d="M133 483c-73 0-133-59-133-133s60-133 133-133 134 60 134 133-60 133-134 133z m734 0c-74 0-134-59-134-133s60-133 134-133 133 60 133 133-60 133-133 133z m-367 0c-73 0-133-59-133-133s60-133 133-133 133 60 133 133-59 133-133 133z" horiz-adv-x="1000" />

<glyph glyph-name="new" unicode="&#xe816;" d="M896 626c-21 30-52 65-85 98s-68 63-97 85c-51 37-75 41-89 41h-484c-43 0-78-35-78-78v-844c0-43 35-78 78-78h718c43 0 79 35 79 78v610c0 14-5 38-42 88z m-129 53c30-30 53-57 71-79h-151v150c23-17 50-41 80-71z m108-751c0-8-7-16-16-16h-718c-9 0-16 8-16 16v844c0 8 7 16 16 16 0 0 484 0 484 0v-219c0-17 14-31 31-31h219v-610z" horiz-adv-x="1000" />

<glyph glyph-name="ray" unicode="&#xe818;" d="M806 348l-236 137 119 285c4 7 6 16 6 24 0 31-25 56-56 56-14 0-25-5-34-12-2-1-3-2-4-3l-417-395c-13-12-19-29-17-46 2-18 12-33 27-42l236-137-120-288c-10-24-2-52 20-67 9-7 20-10 31-10 14 0 28 5 38 15l417 395c13 12 19 29 17 47-2 17-12 32-27 41z" horiz-adv-x="1000" />

<glyph glyph-name="plus" unicode="&#xe819;" d="M1000 445v-190c0-15-12-26-26-26h-353v-353c0-14-11-26-26-26h-190c-15 0-26 12-26 26v353h-353c-14 0-26 11-26 26v190c0 15 12 26 26 26h353v353c0 14 11 26 26 26h190c15 0 26-12 26-26v-353h353c14 0 26-11 26-26z" horiz-adv-x="1000" />

<glyph glyph-name="printer" unicode="&#xe81a;" d="M850 550h-700c-85 0-150-65-150-150v-300h200v-200h600v200h200v300c0 85-65 150-150 150z m-150-550h-400v250h400v-250z m150 350c-30 0-50 20-50 50s20 50 50 50 50-20 50-50-20-50-50-50z m-50 450h-600v-200h600v200z" horiz-adv-x="1000" />

<glyph glyph-name="profile" unicode="&#xe81b;" d="M844 850h-750c-52 0-94-42-94-94v-812c0-52 42-94 94-94h750c51 0 94 42 94 94v812c0 52-43 94-94 94z m-31-875h-688v750h688v-750z m-563 313h438v-63h-438z m0-125h438v-63h-438z m63 406c0 52 42 94 93 94s94-42 94-94c0-52-42-94-94-94s-93 42-93 94z m156-94h-125c-52 0-94-28-94-62v-63h313v63c0 34-43 62-94 62z" horiz-adv-x="1000" />

<glyph glyph-name="receipt" unicode="&#xe81c;" d="M828 782l-119 68-118-68-118 68-119-68-89 51v-804h529v-118c0-34 27-61 61-61 34 0 62 27 62 61v922l-89-51z m-490-467v59h253v-59h-253z m506 129h-506v59h506v-59z m0 129h-506v60h506v-60z m-109-662v59h-651v-59c0-34 27-61 61-61h606c-10 18-16 39-16 61z" horiz-adv-x="1000" />

<glyph glyph-name="question-coin" unicode="&#xe81d;" d="M933 601c-45 77-105 137-182 182-77 45-160 67-251 67-91 0-174-22-251-67-77-45-137-105-182-182-45-77-67-160-67-251 0-91 22-174 67-251 45-77 105-137 182-182 77-45 160-67 251-67s174 22 251 67c77 45 137 105 182 182 45 77 67 160 67 251 0 91-22 174-67 251z m-350-563c0-7-2-12-5-15-4-4-9-6-15-6h-125c-7 0-11 2-15 6-4 3-6 8-6 15v125c0 6 2 11 6 15 4 3 8 5 15 5h125c6 0 11-2 15-5 3-4 5-9 5-15v-125z m159 384c-6-16-12-29-18-39-7-10-17-21-29-31-13-11-23-19-30-23-8-5-18-11-32-19-14-8-26-19-36-32-9-13-14-24-14-32 0-6-2-11-5-15-4-4-9-6-15-6h-125c-6 0-11 2-15 6-4 4-6 9-6 15v23c0 29 11 57 34 82 23 25 48 44 75 56 21 10 36 20 44 30 9 10 13 23 13 39 0 15-8 27-24 39-16 11-35 17-56 17-22 0-41-5-56-16-14-10-33-30-56-60-4-5-9-8-16-8-5 0-9 2-12 4l-86 65c-10 8-12 17-5 28 55 92 136 138 241 138 38 0 75-9 111-26 36-18 66-43 90-76 24-32 36-68 36-106 0-19-3-37-8-53z" horiz-adv-x="1000" />

<glyph glyph-name="question" unicode="&#xe81e;" d="M583 100h-188c-8 0-15-3-21-9-7-7-10-14-10-22v-188c0-8 3-15 10-22 6-6 13-9 21-9h188c8 0 16 3 22 9 6 7 9 14 9 22v188c0 8-3 15-9 22-6 6-14 9-22 9z m246 561c-21 40-49 73-83 100-34 27-72 49-114 65-42 16-84 24-126 24-158 0-279-69-362-208-4-7-6-14-4-22 1-7 5-14 12-19l128-98c7-4 13-6 19-6 10 0 18 4 25 12 37 47 65 77 83 90 23 15 51 23 84 23 32 0 60-8 84-25 25-17 37-36 37-58 0-24-7-44-20-59-13-15-35-30-65-44-41-18-78-46-112-85-34-38-51-79-51-122v-35c0-10 3-20 8-29 6-10 12-15 20-15h188c8 0 15 4 22 12 6 8 9 17 9 26 0 13 7 30 21 52 15 22 33 39 54 51 20 11 36 20 48 27 11 7 26 19 45 34 18 16 32 32 43 47 10 15 19 35 27 60 8 24 12 50 12 79 0 43-11 84-32 123z" horiz-adv-x="1000" />

<glyph glyph-name="scissors" unicode="&#xe81f;" d="M381 636c0 105-86 190-190 190s-191-85-191-190 86-191 191-191c28 0 52 5 76 19l114-114-114-114c-24 14-48 19-76 19-105 0-191-86-191-191s86-190 191-190 190 85 190 190c0 29-5 53-19 77l114 114 334-334h190l-638 639c14 23 19 47 19 76z m-190-95c-53 0-96 42-96 95s43 95 96 95 95-43 95-95-43-95-95-95z m0-572c-53 0-96 43-96 95s43 96 96 96 95-43 95-96-43-95-95-95z m285 405c15 0 24-10 24-24 0-14-9-24-24-24-14 0-24 10-24 24 0 14 10 24 24 24z m524 405h-190l-286-286 95-95 381 381z" horiz-adv-x="1000" />

<glyph glyph-name="redo" unicode="&#xe820;" d="M0 288c0-150 66-284 169-376l83 94c-78 69-127 170-127 282 0 207 168 375 375 375 104 0 197-42 265-110l-140-140h375v375l-146-147c-91 91-216 147-354 147-276 0-500-224-500-500z" horiz-adv-x="1000" />

<glyph glyph-name="recycle" unicode="&#xe821;" d="M988 796c-9 8-18 12-30 12-11 0-21-4-29-12l-85-84c-46 44-99 78-159 102-60 24-122 36-185 36-119 0-223-36-312-108-89-73-148-167-176-283v-5c0-5 2-10 6-14 4-5 9-7 15-7h129c10 0 16 5 20 15 18 44 29 69 34 77 31 49 71 88 121 116 51 28 105 42 163 42 87 0 163-29 227-89l-90-90c-8-8-12-18-12-29 0-11 4-21 12-29 9-8 18-13 30-13h291c12 0 21 5 30 13 8 8 12 18 12 29v292c0 11-4 21-12 29z m-25-529h-125c-10 0-16-5-20-15-18-44-29-69-34-76-30-50-71-89-121-117-51-28-105-42-163-42-42 0-83 8-122 23-39 16-74 38-105 67l90 89c8 8 12 18 12 29 0 11-4 21-12 29-9 9-18 13-30 13h-291c-12 0-21-4-30-13-8-8-12-18-12-29v-292c0-11 4-21 12-29 9-8 18-12 30-12 11 0 21 4 29 12l84 84c46-44 99-78 159-102 59-24 120-36 183-36 119 0 223 36 312 108 88 73 146 167 174 283 1 1 1 3 1 5 0 6-2 10-6 15-5 4-9 6-15 6z" horiz-adv-x="1000" />

<glyph glyph-name="refresh" unicode="&#xe822;" d="M975 805c-18 8-33 4-46-9l-85-84c-46 44-99 78-159 102-59 24-121 36-185 36-68 0-132-13-194-40-62-26-115-62-159-106-45-45-81-98-107-160-27-62-40-126-40-194 0-68 13-132 40-194 26-62 62-115 107-160 44-44 97-80 159-106 62-27 126-40 194-40 75 0 146 16 213 47 67 32 125 76 172 133 3 5 5 10 5 15-1 5-3 10-6 13l-90 90c-4 4-10 6-16 6-7-1-12-3-15-8-32-41-70-73-116-95-46-23-95-34-147-34-45 0-88 8-129 26-41 18-77 41-107 71-30 30-53 66-71 107-17 41-26 84-26 129 0 45 9 88 26 129 18 41 41 77 71 107 30 30 66 53 107 71 41 18 84 26 129 26 87 0 163-29 227-89l-90-90c-13-13-16-28-9-45 8-17 20-26 39-26h291c12 0 21 4 30 13 8 8 12 18 12 29v292c0 18-8 31-25 38z" horiz-adv-x="1000" />

<glyph glyph-name="resize" unicode="&#xe823;" d="M1000 753c0 5-2 10-7 15l-75 75c-4 5-10 7-15 7s-11-2-16-7l-219-219-96 95c-8 8-18 12-30 12-11 0-21-4-29-12-9-8-13-18-13-30v-297c0-11 4-21 13-29 8-9 18-13 29-13h297c12 0 22 4 30 13 8 8 13 18 13 29 0 12-5 22-13 30l-95 96 219 219c5 5 7 10 7 16z m-542-403h-297c-11 0-21-4-30-13-8-8-12-18-12-29 0-12 4-22 12-30l96-96-220-219c-5-5-7-10-7-16 0-5 2-11 7-15l75-75c5-5 10-7 15-7s11 2 16 7l219 220 96-96c8-8 18-13 30-13 11 0 21 5 29 13 9 8 13 18 13 30v297c0 11-4 21-13 29-8 9-18 13-29 13z" horiz-adv-x="1000" />

<glyph glyph-name="scissors2" unicode="&#xe824;" d="M861 105c-27 46-69 80-117 93-32 9-65 8-94-4l-83 146c74 137 184 339 198 363 34 60-22 125-24 128l-16 19-225-393-225 393-16-19c-2-3-58-69-24-128 14-24 124-226 198-363l-83-146c-29 11-62 13-94 4-47-13-90-47-117-93-50-88-29-194 45-237 21-12 45-18 69-18 14 0 28 1 42 6 80 27 121 93 141 160 1 3 40 164 62 199 0 0 1 1 2 3 1-2 2-3 2-3 22-35 62-196 62-199 20-67 61-133 142-160 13-5 27-6 41-6 25 0 48 6 69 18 75 43 95 149 45 237z m-515-119c-16-29-43-51-71-58-7-2-15-3-22-3-11 0-22 2-31 8-40 22-47 83-18 135 17 29 43 51 72 58 19 5 38 4 53-5 39-22 47-83 17-135z m432-53c-9-6-20-8-31-8-7 0-15 1-22 3-28 7-55 29-71 58-30 52-22 113 17 135 15 9 34 10 53 5 29-8 55-29 72-58 29-52 22-113-18-135z" horiz-adv-x="1000" />

<glyph glyph-name="redo2" unicode="&#xe825;" d="M563 607v243l375-375-375-375v248c-437 10-418-297-307-498-274 296-216 771 307 757z" horiz-adv-x="1000" />

<glyph glyph-name="store" unicode="&#xe826;" d="M833 679v171h-666v-171l-167-143v-103c0-63 44-117 104-137v-446h792v446c60 20 104 74 104 137v103z m-583 88h500v-84h-500z m313-834h-125v167h125z m250 0h-167v250h-292v-250h-166v358c32 6 61 21 83 43 28-28 69-46 114-46s86 18 115 46c29-28 69-46 115-46s86 18 114 46c22-22 51-37 84-43z m104 500c0-34-33-62-73-62s-73 28-73 62v84h-83v-84c0-34-33-62-73-62s-73 28-73 62v84h-84v-84c0-34-32-62-73-62s-72 28-72 62v84h-84v-84c0-34-32-62-73-62s-73 28-73 62v65l120 102h594l120-102z m0 0" horiz-adv-x="1000" />

<glyph glyph-name="tags" unicode="&#xe827;" d="M1203 850h-375c-26 0-62-15-80-33l-465-465c-18-18-18-48 0-66l403-403c18-18 48-18 66 0l465 465c18 18 33 54 33 80v375c0 26-21 47-47 47z m-234-375c-52 0-94 42-94 94s42 94 94 94 94-42 94-94-42-94-94-94z m-844-156l531 531h-78c-26 0-62-15-80-33l-465-465c-18-18-18-48 0-66l403-403c18-18 48-18 66 0l29 30-406 406z" horiz-adv-x="1250" />

<glyph glyph-name="text" unicode="&#xe828;" d="M847 850h-384c-12 0-23-4-32-12l-310-284c-9-9-15-22-15-35v-622c0-26 21-47 47-47h694c26 0 47 21 47 47v906c0 26-21 47-47 47z m-420-143v-175h-190l190 175z m373-763h-600v494h274c26 0 47 21 47 47v271h279v-812l0 0z m-490 359h396v-94h-396v94z m0-167h396v-94h-396v94z" horiz-adv-x="1000" />

<glyph glyph-name="tag" unicode="&#xe829;" d="M639-126c-32-32-85-32-117 0l-459 431c-26 24-57 69-59 105-6 94-2 276 1 373 1 35 31 64 66 65 123 3 384 6 408-18l506-457c32-33 3-115-30-148l-316-351z m-402 834c-27 28-72 28-99 0-28-27-28-72 0-99 27-27 72-27 99 0 28 27 28 72 0 99z" horiz-adv-x="1000" />

<glyph glyph-name="search" unicode="&#xe82a;" d="M989-27l-207 207c-8 7-8 15-4 23 42 65 65 141 65 226 0 233-188 421-421 421s-422-188-422-421 188-422 422-422c84 0 161 23 226 65 7 4 19 4 23-4l207-207c15-15 38-15 53 0l54 54c19 19 19 42 4 58z m-563 187c-150 0-269 119-269 269s119 268 269 268 268-119 268-268-119-269-268-269z" horiz-adv-x="1000" />

<glyph glyph-name="table" unicode="&#xe82b;" d="M917 725h-834c-46 0-83-37-83-83v-313c0-11 9-21 21-21 36 0 56 14 72 25 14 10 24 17 48 17s34-8 48-17c16-11 35-25 72-25s56 14 72 25c13 9 24 17 48 17 23 0 34-8 48-17 2-2 6-4 9-6v-211l-131-38c-9-2-15-10-15-20v-62c0-12 9-21 21-21h375c11 0 20 9 20 21v62c0 10-6 18-15 20l-130 38v210c3 3 6 5 9 7 14 10 25 17 48 17 24 0 35-7 48-17 16-11 36-25 72-25 36 0 56 14 72 25 13 10 24 17 47 17 24 0 35-7 48-17 16-11 36-25 72-25 12 0 21 10 21 21v313c0 46-37 83-83 83z" horiz-adv-x="1000" />

<glyph glyph-name="safe" unicode="&#xe82c;" d="M376 584c-91 0-166-75-166-166s75-167 166-167 167 75 167 167-75 166-167 166z m0-250c-46 0-83 38-83 84 0 36 24 67 56 78l16 33c2 5 6 8 11 8 5 0 10-3 12-8l16-33c32-11 56-42 56-78 0-46-38-84-84-84z m532 516h-816c-48 0-88-39-88-88v-734c0-49 40-88 88-88h19v-70c0-11 9-20 20-20h141c11 0 19 9 19 20v70h418v-70c0-11 9-20 19-20h141c11 0 20 9 20 20v70h19c49 0 88 39 88 88v734c0 49-39 88-88 88z m-532-678c-135 0-245 110-245 246 0 135 110 245 245 245s246-110 246-245c0-136-110-246-246-246z m463 249v-111c0-26-22-47-47-47-26 0-47 21-47 47v111c-22 15-35 39-35 67 0 45 36 82 82 82 45 0 81-37 81-82 0-28-13-52-34-67z" horiz-adv-x="1000" />

<glyph glyph-name="txt" unicode="&#xe82d;" d="M887 492h-24v116c0 1 0 2 0 2 0 5-2 10-5 13l-193 220c0 0 0 0 0 0-1 2-3 3-4 4 0 0-1 0-1 1-1 0-3 1-4 1 0 0-1 0-1 0-2 1-3 1-5 1h-473c-22 0-40-18-40-39v-319h-24c-31 0-56-25-56-56v-291c0-31 25-56 56-56h24v-200c0-21 18-39 40-39h647c21 0 39 18 39 39v200h24c31 0 56 25 56 56v291c0 31-25 56-56 56z m-710 319h454v-201c0-11 9-19 19-19h174v-99h-647v319z m193-371h76l26-54c8-18 15-32 22-48h1c7 18 12 31 20 48l24 54h76l-83-143 87-150h-76l-27 53c-10 20-17 35-26 52h-1c-6-17-13-32-22-52l-24-53h-76l85 148-82 145z m-249-56v56h225v-56h-80v-237h-67v237h-78z m703-484h-647v189h647v-189z m36 484h-79v-237h-67v237h-79v56h225v-56z" horiz-adv-x="1000" />

<glyph glyph-name="tray" unicode="&#xe82e;" d="M884 258c-17 19-47 22-67 5l-137-114c-27-22-60-35-95-35h-162c-25 0-45 20-45 45 0 24 20 44 45 44h51 105c24 0 44 20 44 44 0 25-20 45-44 45h-260c-49 0-95-27-120-70l-20-35c-14-23-31-45-50-64l-82-79 117-194 79 73c20 19 46 29 73 29h207c49 0 96 18 133 49l221 189c21 17 24 48 7 68z m-3 168c-15 166-138 301-299 333 2 5 2 10 2 16 0 41-34 75-75 75-42 0-76-34-76-75 0-6 1-11 2-16-160-32-284-167-298-333h-72v-67h888v67h-72z" horiz-adv-x="1000" />

<glyph glyph-name="terminal" unicode="&#xe82f;" d="M995 97c-4 3-9 5-14 5h-582c-5 0-10-2-14-5-3-4-5-9-5-14v-39c0-6 2-10 5-14 4-4 9-6 14-6h582c5 0 10 2 14 6 3 4 5 8 5 14v39c0 5-2 10-5 14z m-931 573c-4 4-8 6-14 6s-10-2-14-6l-30-31c-4-4-6-8-6-14 0-5 2-10 6-14l238-238-238-238c-4-4-6-8-6-14 0-5 2-10 6-14l30-30c4-4 9-6 14-6s10 2 14 6l283 282c4 4 6 9 6 14 0 6-2 10-6 14l-283 283z" horiz-adv-x="1000" />

<glyph glyph-name="undo2" unicode="&#xe830;" d="M744-150c111 201 130 508-306 498v-248l-375 375 375 375v-243c522 14 580-461 306-757z" horiz-adv-x="1000" />

<glyph glyph-name="trash" unicode="&#xe831;" d="M622 722v128h-244v-128h-307v-179h858v179h-307z m-59 0h-126v69h126v-69z m-433-237l62-635h616l62 635h-740z m201-497l-17 373h59l17-373h-59z m198 0h-58v373h58v-373z m140 0h-59l18 373h58l-17-373z" horiz-adv-x="1000" />

<glyph glyph-name="unchecked" unicode="&#xe832;" d="M0 850v-1000h1000v1000h-1000z m938-938h-875v876h875v-876z" horiz-adv-x="1000" />

<glyph glyph-name="tie" unicode="&#xe833;" d="M749 77l-153 551 88 177c5 9 5 21-1 30-6 9-16 15-27 15h-312c-11 0-21-6-27-15-5-9-6-21-1-30l88-177-153-551c-3-12 1-24 10-32l219-188c6-5 13-7 20-7 7 0 15 2 20 7l219 188c9 8 13 20 10 32z" horiz-adv-x="1000" />

<glyph glyph-name="upload" unicode="&#xe834;" d="M957 308c-29 36-67 59-112 70 15 22 22 46 22 72 0 37-13 68-39 94-26 26-58 39-95 39-33 0-61-10-86-32-21 50-53 90-98 120-45 31-95 46-149 46-74 0-136-26-188-78-53-52-79-115-79-189 0-4 1-12 1-22-41-19-73-48-97-86-25-38-37-80-37-125 0-65 23-119 69-165 45-46 100-69 164-69h567c55 0 102 20 141 59 40 39 59 86 59 141 0 47-14 88-43 125z m-295 14c-4-4-7-5-12-5h-117v-184c0-4-1-8-5-11-3-4-7-5-11-5h-100c-5 0-9 1-12 5-3 3-5 7-5 11v184h-117c-4 0-8 1-12 4-3 4-4 8-4 12 0 5 1 9 5 13l183 183c3 3 7 4 12 4 5 0 9-1 12-4l183-184c3-3 5-7 5-12 0-4-2-8-5-11z" horiz-adv-x="1000" />

<glyph glyph-name="undo" unicode="&#xe835;" d="M500 788c-138 0-263-56-354-147l-146 147v-375h375l-140 140c68 68 161 110 265 110 207 0 375-168 375-375 0-112-49-213-127-282l83-94c104 92 169 226 169 376 0 276-224 500-500 500z" horiz-adv-x="1000" />

<glyph glyph-name="unlocked" unicode="&#xe836;" d="M813 350h-480v208c0 46 17 86 49 118 33 33 72 49 118 49 46 0 85-16 118-49 32-32 49-72 49-118 0-11 4-21 12-29 8-8 18-12 29-12h42c11 0 21 4 29 12 9 8 13 18 13 29 0 81-29 149-86 206-57 58-126 86-206 86-80 0-149-28-206-86-57-57-86-125-86-206v-208h-20c-18 0-33-6-45-18-12-12-18-27-18-44v-376c0-17 6-32 18-44 12-12 27-18 45-18h625c17 0 32 6 44 18 12 12 18 27 18 44v376c0 17-6 32-18 44-12 12-27 18-44 18z m-264-260v-122c0-25-20-45-45-45h-8c-25 0-45 20-45 45v122c-26 16-44 45-44 78 0 52 42 93 93 93s93-41 93-93c0-33-18-62-44-78z" horiz-adv-x="1000" />

<glyph glyph-name="asterisk" unicode="&#xe837;" d="M960 183l-273 167 273 167c4 3 8 7 9 13s0 11-2 15l-81 131c-5 10-18 13-28 7l-260-159v305c0 12-10 21-21 21h-154c-11 0-20-9-20-21v-305l-261 159c-10 6-22 3-28-7l-81-131c-2-4-3-10-2-15s5-10 9-13l273-167-273-167c-4-3-8-7-9-13-1-5 0-11 2-15l81-131c6-10 18-13 28-7l261 159v-305c0-12 9-21 20-21h154c11 0 21 9 21 21v305l260-159c10-6 23-3 28 7l81 131c3 4 3 10 2 15-1 6-5 10-9 13z" horiz-adv-x="1000" />

<glyph glyph-name="attach" unicode="&#xe838;" d="M575 788c-106 0-200-94-200-200v-363c0-69 56-125 125-125s125 56 125 125v313h-94v-313c0-19-12-31-31-31s-31 12-31 31v363c0 62 50 112 112 112s107-56 107-112v-388c0-106-82-187-188-187s-187 81-187 187v338h-94v-344c0-156 125-282 281-282s281 126 281 282v394c0 106-93 200-206 200z" horiz-adv-x="1000" />

<glyph glyph-name="barcode" unicode="&#xe839;" d="M90 829h-80c-6 0-10-5-10-10v-937c0-6 4-10 10-10h80c6 0 10 4 10 10v937c0 5-4 10-10 10z m98-793h41c5 0 9 5 9 10v773c0 5-4 10-9 10h-41c-5 0-9-5-9-10v-773c0-5 4-10 9-10z m152 0h52c6 0 10 5 10 10v773c0 5-4 10-10 10h-52c-5 0-10-5-10-10v-773c0-5 5-10 10-10z m138 0h51c5 0 10 5 10 10v773c0 5-5 10-10 10h-51c-5 0-9-5-9-10v-773c0-5 4-10 9-10z m139 0h80c6 0 10 5 10 10v773c0 5-4 10-10 10h-80c-6 0-10-5-10-10v-773c0-5 4-10 10-10z m165 0h54c5 0 9 5 9 10v773c0 5-4 10-9 10h-54c-5 0-10-5-10-10v-773c0-5 5-10 10-10z m208 793h-80c-6 0-10-5-10-10v-937c0-6 4-10 10-10h80c6 0 10 4 10 10v937c0 5-4 10-10 10z m-795-836c-31 0-49-22-49-61 0-39 18-61 49-61 32 0 50 22 50 61 0 39-18 61-50 61z m0-106c-22 0-33 15-33 45 0 30 11 46 33 46 23 0 34-16 34-46 0-17-4-45-34-45z m82 106h-24c-4 0-8-3-8-7v-1c0-4 4-7 8-7h16v-99c0-4 3-8 7-8h1c4 0 8 4 8 8v107c0 4-4 7-8 7z m69-61h-31c-5 0-8-3-8-7v-1c0-4 3-7 8-7h31c4 0 8 3 8 7v1c0 4-4 7-8 7z m62 61c-31 0-50-22-50-61 0-39 19-61 50-61 32 0 50 22 50 61 0 39-18 61-50 61z m0-106c-22 0-34 15-34 45 0 30 12 46 34 46 23 0 34-16 34-46 0-17-4-45-34-45z m82 106h-24c-5 0-8-3-8-7v-1c0-4 3-7 8-7h15v-99c0-4 4-8 8-8h1c4 0 7 4 7 8v107c0 4-3 7-7 7z m103-106h-53l32 35c13 14 20 28 20 39 0 20-14 32-37 32-12 0-26-5-36-15-1-1-2-3-2-5 0-2 1-4 2-6l1 0c3-3 8-3 10 0 7 6 17 11 25 11 7 0 22-2 22-17 0-5-5-15-17-28l-42-47c-1-1-1-3-1-5v-2c0-4 3-8 7-8h69c4 0 8 4 8 8v0c0 5-4 8-8 8z m56 58l29 35c2 1 2 3 2 5v1c0 4-3 7-7 7h-56c-4 0-7-3-7-7v-1c0-4 3-7 7-7h39l-29-35c-1-1-2-3-2-5v-1c0-4 3-7 8-7h9c13 0 28-4 28-20 0-14-11-23-27-23-9 0-18 3-25 7-3 2-8 1-10-2l0 0c-2-2-2-4-2-6 1-2 2-4 4-5 9-6 21-10 33-10 25 0 42 16 42 40 0 19-14 32-36 34z m124-25h-10v27c0 4-4 7-8 7h-1c-4 0-7-3-7-7v-27h-33l36 62c2 2 2 5 0 8-1 2-4 3-6 3h-1c-3 0-5-1-7-3l-41-73c-1-1-1-2-1-3v-3c0-4 3-7 8-7h45v-25c0-4 3-8 7-8h1c4 0 8 4 8 8v25h10c4 0 7 3 7 7v1c0 4-3 8-7 8z m45 29c-5 0-11-1-17-2v31h47c5 0 8 3 8 7v1c0 4-3 7-8 7h-56c-4 0-7-3-7-7v-50c0-3 1-5 3-6 2-2 5-2 7-1 7 3 17 4 23 4 16 0 26-7 26-20 0-16-10-26-26-26-9 0-20 4-28 9-3 2-8 1-10-3l0 0c-2-2-2-4-1-6 0-2 1-4 3-5 11-6 24-11 36-11 25 0 42 17 42 42 0 21-17 36-42 36z" horiz-adv-x="1000" />

<glyph glyph-name="time" unicode="&#xe83a;" d="M933 601c-45 77-105 137-182 182-77 45-160 67-251 67-91 0-174-22-251-67-77-45-137-105-182-182-45-77-67-160-67-251 0-91 22-174 67-251 45-77 105-137 182-182 77-45 160-67 251-67s174 22 251 67c77 45 137 105 182 182 45 77 67 160 67 251 0 91-22 174-67 251z m-126-429c-32-54-75-97-129-129-54-31-114-47-178-47-64 0-123 16-178 47-54 32-97 75-129 129-31 55-47 114-47 178 0 64 16 124 47 178 32 54 75 97 129 129 55 31 114 47 178 47 64 0 124-16 178-47 54-32 97-75 129-129 31-54 47-114 47-178 0-64-16-123-47-178z m-244 428h-42c-6 0-11-2-15-6-4-4-6-9-6-15v-229h-146c-6 0-11-2-15-6-4-4-6-9-6-15v-41c0-7 2-12 6-15 4-4 9-6 15-6h209c6 0 11 2 15 6 3 3 5 8 5 15v291c0 6-2 11-5 15-4 4-9 6-15 6z" horiz-adv-x="1000" />

<glyph glyph-name="cancel-arrow" unicode="&#xe83b;" d="M917 725h-625c-29 0-50-12-67-37l-225-338 225-337c17-21 38-38 67-38h625c46 0 83 38 83 83v584c0 46-37 83-83 83z m-125-525l-59-58-150 150-150-150-58 58 150 150-150 150 58 58 150-150 150 150 59-58-150-150 150-150z" horiz-adv-x="1000" />

<glyph glyph-name="cancel-coin" unicode="&#xe83c;" d="M500 850c-275 0-500-225-500-500s225-500 500-500 500 225 500 500-225 500-500 500z m250-680l-70-70-180 180-180-180-70 70 180 180-180 180 70 70 180-180 180 180 70-70-180-180 180-180z" horiz-adv-x="1000" />

<glyph glyph-name="cart" unicode="&#xe83d;" d="M375 131c-69 0-125-56-125-125 0-69 56-125 125-125 69 0 125 56 125 125 0 69-56 125-125 125z m438 0c-69 0-125-56-125-125 0-69 56-125 125-125 68 0 125 56 125 125 0 69-57 125-125 125z m172 541c-12 14-29 22-47 22h-639l-20 77c0 2-1 3-1 5-1 2-1 4-2 6-1 2-2 3-3 5-1 2-2 4-3 5-2 2-3 4-4 5-2 2-3 3-4 5-2 1-3 2-5 3-1 2-3 3-5 4-1 1-3 2-5 3-2 1-4 2-5 2-2 1-5 2-7 2-2 1-3 1-5 2-2 0-5 0-8 0-1 1-2 1-3 1h-156c-35 0-63-28-63-63s28-62 63-62h107l19-76 62-372c5-30 31-52 62-52h562c31 0 57 22 62 52l62 375c3 18-2 37-14 51z m-547-353c0-17-14-31-32-31s-31 14-31 31v219c0 17 14 31 31 31s32-14 32-31v-219z m125 0c0-17-14-31-32-31s-31 14-31 31v219c0 17 14 31 31 31s32-14 32-31v-219z m125 0c0-17-14-31-32-31s-31 14-31 31v219c0 17 14 31 31 31s32-14 32-31v-219z m125 0c0-17-14-31-32-31s-31 14-31 31v219c0 17 14 31 31 31s32-14 32-31v-219z" horiz-adv-x="1000" />

<glyph glyph-name="basket" unicode="&#xe83e;" d="M703 567h87l-130 223c-10 18-33 24-51 13-18-10-24-33-14-51l108-185z m-298 185c11 18 5 41-13 51s-42 5-52-13l-130-223h88l107 185z m531-254h-872c-35 0-64-28-64-64v-71c0-36 29-64 64-64h20l62-337c8-39 44-71 82-71h25 161c17 0 38 0 60 0l0 0h20 19l0 0c22 0 43 0 60 0h162 24c38 0 74 32 82 71l62 337h33c35 0 64 29 64 64v71c0 36-29 64-64 64z m-581-335v-145c0-21-17-37-37-37-20 0-36 17-36 37v60 143c0 21 17 36 36 36 21 0 37-17 37-36v-58z m116 0v-145c0-21-16-37-36-37-21 0-36 17-36 37v60 143c0 21 17 36 36 36s36-17 36-36v-58z m118-85v-60c0-20-16-37-37-37-19 0-36 16-36 37v145 58c0 19 17 36 36 36s37-15 37-36v-143z m116 0v-60c0-20-15-37-36-37-20 0-36 16-36 37v145 58c0 19 15 36 36 36 19 0 36-15 36-36v-143z" horiz-adv-x="1000" />

<glyph glyph-name="bullets" unicode="&#xe83f;" d="M107 457c-30 0-55-10-76-31-21-21-31-46-31-76 0-30 10-55 31-76 21-21 46-31 76-31 30 0 55 10 76 31 21 21 31 46 31 76 0 30-10 55-31 76-21 21-46 31-76 31z m0 286c-30 0-55-11-76-31-21-21-31-46-31-76 0-30 10-55 31-76 21-21 46-31 76-31 30 0 55 10 76 31 21 21 31 46 31 76 0 30-10 55-31 76-21 20-46 31-76 31z m0-572c-30 0-55-10-76-31-21-21-31-46-31-76 0-29 10-55 31-76 21-20 46-31 76-31 30 0 55 11 76 31 21 21 31 47 31 76 0 30-10 55-31 76-21 21-46 31-76 31z m888 531c-4 3-8 5-13 5h-678c-5 0-9-2-13-5-3-4-5-8-5-13v-107c0-5 2-9 5-12 4-4 8-6 13-6h678c5 0 9 2 13 6 3 3 5 7 5 12v107c0 5-2 9-5 13z m-13-281h-678c-5 0-9-1-13-5-3-3-5-8-5-12v-108c0-4 2-9 5-12 4-4 8-5 13-5h678c5 0 9 1 13 5 3 3 5 8 5 12v108c0 4-2 9-5 12-4 4-8 5-13 5z m0-285h-678c-5 0-9-2-13-6-3-3-5-7-5-12v-107c0-5 2-9 5-13 4-3 8-5 13-5h678c5 0 9 2 13 5 3 4 5 8 5 13v107c0 5-2 9-5 12-4 4-8 6-13 6z" horiz-adv-x="1000" />

<glyph glyph-name="user" unicode="&#xe840;" d="M40-122h920c12 0 24 5 31 14 7 8 10 17 9 27-22 168-125 308-267 383-59-60-142-97-233-97s-174 37-233 97c-142-75-245-215-267-383-1-10 2-19 9-27 7-9 19-14 31-14z m253 460c5-5 11-11 17-16 50-45 117-73 190-73s140 28 191 73c5 5 11 11 16 16 6 6 11 12 16 18 39 49 63 111 63 179 0 158-128 287-286 287s-286-129-286-287c0-68 24-130 63-179 5-6 10-12 16-18z" horiz-adv-x="1000" />

<glyph glyph-name="chat" unicode="&#xe841;" d="M0 845v-695h193l0-295 296 295h511v695h-1000z m827-442h-654v78h654v-78z m0 144h-654v79h654v-79z" horiz-adv-x="1000" />

<glyph glyph-name="checked" unicode="&#xe842;" d="M0 850v-1000h1000v1000h-1000z m938-938h-875v876h875v-876z m-188 719l-312-312-188 187-125-125 313-312 437 437-125 125z" horiz-adv-x="1000" />

<glyph glyph-name="chat-o" unicode="&#xe843;" d="M906 850h-812c-52 0-94-42-94-94v-562c0-52 42-94 94-94h125v-250l406 250h281c52 0 94 42 94 94v562c0 52-42 94-94 94z m-31-625h-281l-250-156-31 156h-188v500h750v-500z" horiz-adv-x="1000" />

<glyph glyph-name="check-coin" unicode="&#xe844;" d="M854-4c195 196 195 512 0 708s-512 195-707 0-196-512 0-708 512-195 707 0z m-533 430l112-112 247 246 87-87-246-246-88-87-87 87-112 112 87 87z" horiz-adv-x="1000" />

<glyph glyph-name="chevron-d" unicode="&#xe845;" d="M976 593l-48 48c-17 16-36 24-58 24-23 0-42-8-58-24l-312-311-312 311c-16 16-35 24-58 24-22 0-41-8-58-24l-48-48c-16-16-24-35-24-58 0-23 8-42 24-58l418-418c16-16 35-24 58-24 23 0 42 8 58 24l418 418c16 16 24 35 24 58 0 22-8 42-24 58z" horiz-adv-x="1000" />

<glyph glyph-name="chevron-l" unicode="&#xe846;" d="M842 667c0 13-5 25-14 33l-136 136c-9 9-21 14-34 14s-25-5-34-14l-452-452c-9-9-14-21-14-34s5-25 14-34l452-452c9-9 22-14 34-14s25 5 34 14l136 136c9 9 14 21 14 34s-5 25-14 33l-283 283 283 283c9 9 14 21 14 34l0 0z" horiz-adv-x="1000" />

<glyph glyph-name="chevron-r" unicode="&#xe847;" d="M158 33c0-12 6-25 14-33l136-136c9-9 21-14 34-14 12 0 25 5 34 14l452 452c9 9 14 21 14 34s-5 25-14 34l-452 452c-9 9-22 14-34 14-13 0-25-5-34-14l-136-136c-9-9-14-21-14-34s5-25 14-33l283-283-283-283c-9-9-14-21-14-34l0 0z" horiz-adv-x="1000" />

<glyph glyph-name="check" unicode="&#xe848;" d="M868 725l132-132-619-618-381 381 132 132 249-249 487 486z" horiz-adv-x="1000" />

<glyph glyph-name="clock-o" unicode="&#xe849;" d="M643 118l-205 206v276h125v-224l169-169z m-143 732c-276 0-500-224-500-500s224-500 500-500 500 224 500 500-224 500-500 500z m0-875c-207 0-375 168-375 375s168 375 375 375c207 0 375-168 375-375s-168-375-375-375z" horiz-adv-x="1000" />

<glyph glyph-name="delivery" unicode="&#xe84a;" d="M693 847c-170 0-307-109-307-243 0-80 49-151 124-195-7-40-31-88-63-121 80 6 150 29 196 76 16-2 33-3 50-3 170 0 307 109 307 243 0 134-137 243-307 243z m-144-291c-27 0-48 21-48 48 0 26 21 48 48 48s48-22 48-48c0-27-22-48-48-48z m144 0c-27 0-48 21-48 48 0 26 21 48 48 48 26 0 48-22 48-48 0-27-22-48-48-48z m144 0c-27 0-48 21-48 48 0 26 21 48 48 48 26 0 48-22 48-48 0-27-22-48-48-48z m-204-511c-97 78-124 39-168-5-31-31-109 34-177 101-67 68-132 146-101 177 44 44 83 71 5 168-79 98-131 23-174-20-49-49-2-233 180-415 182-182 366-229 415-180 43 43 118 95 20 174z m-511 389c-2-1-4-2-6-3-5-2-10-4-16-6-3-2-7-3-10-5-3-2-6-4-8-6-3-3-6-6-8-9-2-4-5-7-6-12-2-4-3-9-4-14-1-4-1-9-2-14 0-10 0-19 2-27 0-9 2-15 3-20 1-5 2-8 2-8s-2 3-4 7c-3 4-7 10-11 17-4 8-8 18-11 28-2 6-4 11-5 17 0 6-1 13-1 19 0 7 1 14 2 20 2 7 5 14 8 20 3 6 6 11 10 16 4 5 8 9 11 13 7 7 14 12 17 15 2 2 3 3 4 3 1 1 1 2 1 2l34-53c0 0-1 0-2 0z m501-497c-4-4-9-10-16-17-3-4-7-8-12-11-4-4-10-7-15-10-6-4-12-6-19-8-6-2-12-4-19-4l-10-1-9 0c-6 1-12 2-17 3-6 1-11 3-15 5-5 1-9 3-13 5-8 3-14 7-19 9-4 2-6 4-6 4s3-1 7-2c5 0 12-2 20-2 4 0 8-1 13 0 4 0 9 0 14 1 5 1 10 1 14 3l7 2 6 3c17 8 26 22 31 34 3 6 5 11 6 16 2 4 3 7 3 7l54-31c0 0-2-2-5-6z" horiz-adv-x="1000" />

<glyph glyph-name="chevron-u" unicode="&#xe84b;" d="M976 224l-418 417c-16 16-36 24-58 24-23 0-42-8-58-24l-418-417c-16-17-24-36-24-59 0-23 8-42 24-58l49-48c15-16 34-24 57-24 23 0 43 8 58 24l312 312 312-312c15-16 35-24 58-24 22 0 42 8 58 24l48 48c16 16 24 36 24 58 0 23-8 42-24 59z" horiz-adv-x="1000" />

<glyph glyph-name="clock" unicode="&#xe84c;" d="M500 850c-276 0-500-224-500-500s224-500 500-500 500 224 500 500-224 500-500 500z m143-732l-205 206v276h125v-224l169-169-89-89z" horiz-adv-x="1000" />

<glyph glyph-name="doc" unicode="&#xe84d;" d="M844 850h-750c-52 0-94-42-94-94v-812c0-52 42-94 94-94h750c51 0 94 42 94 94v812c0 52-43 94-94 94z m-31-875h-688v750h688v-750z m-563 438h438v-63h-438z m0-125h438v-63h-438z m0-125h438v-63h-438z m0 375h438v-63h-438z" horiz-adv-x="1000" />

<glyph glyph-name="dispatch" unicode="&#xe84e;" d="M949 821h-687c-28 0-51-23-51-51v-441l131 31c31 8 65 5 96-8l157-68c46-21 77-61 87-107h267c28 0 51 23 51 51v542c0 28-23 51-51 51z m-76-788c-7 28-36 44-64 36l-250-76c-11-4-22-2-32 4-39 27-136 93-173 118-5 4-5 11 1 14l30 14c7 3 15 3 22 0 35-15 70-30 105-45 25-11 55-1 67 23 13 27 1 58-25 70-73 31-111 48-156 68-10 4-21 5-33 3-23-6-183-45-204-50h-110c-26 0-49-20-51-48l0-112v0c0-28 23-51 51-51h87c10 0 20-2 29-5 62-24 241-93 267-103 49-18 88-14 100-12 19 3 83 23 303 90 26 8 43 35 36 62z" horiz-adv-x="1000" />

<glyph glyph-name="cancel" unicode="&#xe84f;" d="M0 36l314 314-314 314 186 186 314-314 314 314 186-186-314-314 314-314-186-186-314 314-314-314-186 186z" horiz-adv-x="1000" />

<glyph glyph-name="drawer" unicode="&#xe850;" d="M877 850l66-558-74-9-58 499h-622l-58-499-74 9 66 558h754z m-627-125h500v-62h-500v62z m0-125h500v-62h-500v62z m0-125h500v-62h-500v62z m0-125h500v-62h-500v62z m719-125h-938c-17 0-27-13-21-30l105-315c6-17 24-30 41-30h688c17 0 35 13 41 30l105 315c6 17-4 30-21 30z m-344-125h-250v63h250v-63z" horiz-adv-x="1000" />

<glyph glyph-name="favorite" unicode="&#xe851;" d="M963 477h-257c-43 0-89 33-102 74l-80 244c-13 42-35 42-48 0l-79-244c-14-41-60-74-103-74h-257c-43 0-50-21-15-46l208-151c35-25 53-79 39-120l-79-245c-13-41 4-54 39-28l208 151c35 25 91 25 126 0l208-151c35-26 53-13 39 28l-79 245c-14 41 4 95 39 120l208 151c35 25 28 46-15 46z" horiz-adv-x="1000" />

<glyph glyph-name="dollar-coin" unicode="&#xe852;" d="M500 850c-276 0-500-224-500-500s224-500 500-500c276 0 500 224 500 500s-224 500-500 500z m136-693c-24-28-60-44-106-49v-70h-59v70c-78 8-126 53-144 135l91 24c9-52 37-78 85-78 22 0 38 6 49 17s16 24 16 40c0 16-6 28-16 37-11 8-34 19-70 31-33 12-58 23-77 34-18 11-33 26-44 46-12 20-17 43-17 70 0 34 10 65 30 93 21 28 53 45 97 51v55h59v-55c66-8 109-45 128-112l-81-34c-16 46-41 69-74 69-17 0-30-5-40-15-10-11-15-23-15-38 0-15 4-26 14-34 10-8 31-18 63-29 35-13 63-25 83-37 20-11 35-27 47-47 12-20 18-44 18-71 0-41-12-75-37-103z" horiz-adv-x="1000" />

<glyph glyph-name="favoritre-o" unicode="&#xe853;" d="M999 464c-4 11-14 18-25 18h-343l-106 327c-4 11-14 18-25 18s-21-7-25-18l-106-327h-343c-11 0-21-7-25-18-3-10 1-22 10-28l278-202-107-327c-3-11 1-22 10-29 9-6 21-6 30 0l278 202 278-202c4-3 10-5 15-5 5 0 11 2 15 5 9 7 13 18 10 29l-106 327 277 202c9 6 13 18 10 28z m-333-199c-9-7-13-19-9-29l87-269-229 166c-4 3-10 5-15 5s-11-2-15-5l-229-166 88 269c3 10-1 22-10 29l-229 166h283c11 0 21 7 25 18l87 268 87-268c4-11 14-18 25-18h283l-229-166z" horiz-adv-x="1000" />

<glyph glyph-name="edit" unicode="&#xe854;" d="M57 667h416c-18-17-36-35-53-53l-61-61h-245v-588h588v244c38 39 76 77 115 115v-416c0-32-26-57-58-57h-702c-31 0-57 25-57 57v702c0 32 26 57 57 57z m931 35c7-14 8-29 12-44-1-12-5-21-13-29-169-169-338-337-507-506-6-7-13-11-22-12-73-16-145-31-218-46-17-4-30 9-27 26 16 73 31 147 47 220 2 7 6 14 11 20 49 49 97 97 146 146 120 120 240 240 360 360 9 9 18 14 30 12 14-2 28-3 40-8 66-27 113-74 141-139z m-555-546c-3 11-5 23-10 33-21 38-50 67-89 87-11 5-23 8-36 7-7-31-13-60-19-91v0c32-5 57-30 63-62 29 6 57 12 85 18 6 1 8 3 6 8z" horiz-adv-x="1000" />

<glyph glyph-name="filter" unicode="&#xe855;" d="M500 850c-276 0-500-70-500-156v-94l375-375v-313c0-34 56-62 125-62 69 0 125 28 125 62v313l375 375v94c0 86-224 156-500 156z m-408-136c24 14 56 26 95 37 86 24 197 37 313 37 116 0 227-13 313-37 39-11 71-23 95-37 15-8 24-16 28-20-4-5-13-12-28-21-24-13-56-26-95-36-86-24-197-37-313-37-116 0-227 13-313 37-39 10-71 23-95 36-15 9-24 16-27 21 3 4 12 12 27 20z" horiz-adv-x="1000" />

<glyph glyph-name="floppy" unicode="&#xe856;" d="M966 850h-932c-19 0-34-15-34-34v-932c0-19 15-34 34-34h932c19 0 34 15 34 34v932c0 19-15 34-34 34z m-775-51h618v-289h-618v289z m648-876h-678v427h678v-427z m-205 833h86v-206h-86v206z m142-512h-552v35h552v-35z m0-120h-552v35h552v-35z m0-115h-552v34h552v-34z" horiz-adv-x="1000" />

<glyph glyph-name="warning-coin" unicode="&#xe857;" d="M500 850c-276 0-500-224-500-500 0-276 224-500 500-500 276 0 500 224 500 500 0 276-224 500-500 500z m85-842c0-8-7-15-15-15h-140c-8 0-15 7-15 15v130c0 8 7 15 15 15h140c8 0 15-7 15-15v-130z m0 234c0-8-7-14-15-14h-140c-8 0-15 6-15 14l-12 449c-1 4 1 8 4 11 3 3 6 5 10 5h166c4 0 8-2 10-5 3-3 5-7 5-11l-13-449z" horiz-adv-x="1000" />

<glyph glyph-name="stock" unicode="&#xe858;" d="M272 850v-456h478v456h-478z m369-196h-261v66h261v-66z m-630-326v-478h456v478h-456z m348-195h-239v65h239v-65z m174 195v-478h456v478h-456z m347-195h-239v65h239v-65z" horiz-adv-x="1000" />

<glyph glyph-name="warning" unicode="&#xe859;" d="M649 768v-447c0-46-36-83-82-83h-134c-45 0-82 37-82 83v447c0 45 37 82 82 82h134c45 0 82-37 82-82z m-82-612h-134c-45 0-82-37-82-82v-142c0-45 37-82 82-82h134c46 0 82 37 82 82v142c0 45-37 82-82 82z" horiz-adv-x="1000" />

<glyph glyph-name="users" unicode="&#xe85a;" d="M604 626c46-29 78-78 84-135 19-8 40-13 62-13 81 0 147 65 147 146 0 81-66 147-147 147-80 0-145-65-146-145z m-97-300c81 0 147 66 147 147s-66 146-147 146c-81 0-146-65-146-146s65-147 146-147z m63-10h-125c-103 0-188-84-188-188v-152l1-2 10-4c99-31 185-41 256-41 138 0 218 40 223 42l9 5h1v152c0 104-84 188-187 188z m242 152h-123c-2-50-23-94-56-126 92-28 159-113 159-214v-47c122 5 193 39 197 42l10 4h1v153c0 103-84 188-188 188z m-562 9c29 0 55 9 78 23 7 47 32 88 68 116 0 3 1 5 1 8 0 81-66 147-147 147-81 0-147-66-147-147 0-81 66-147 147-147z m132-135c-33 31-54 76-56 125-5 0-9 1-14 1h-124c-104 0-188-85-188-188v-152l0-3 11-3c79-25 150-36 211-40v46c0 101 68 186 160 214z" horiz-adv-x="1000" />

<glyph glyph-name="size" unicode="&#xe85b;" d="M663 268l-81-81-245 245 81 81 245-245z m299 139l38 443-443-38 151-151-152-152 103-103 152 152 151-151z m-621-113l-152-152-151 151-38-443 443 38-151 151 152 152-103 103z" horiz-adv-x="1000" />

<glyph glyph-name="xls-1" unicode="&#xe85c;" d="M887 492h-24v116c0 1 0 2 0 2 0 5-2 10-5 13l-193 220c0 0 0 0 0 0-1 2-3 3-4 4 0 0-1 0-1 1-1 0-3 1-4 1 0 0-1 0-1 0-2 1-3 1-5 1h-473c-22 0-40-18-40-39v-319h-24c-31 0-56-25-56-56v-291c0-31 25-56 56-56h24v-200c0-21 18-39 40-39h647c21 0 39 18 39 39v200h24c31 0 56 25 56 56v291c0 31-25 56-56 56z m-710 319h454v-201c0-11 9-19 19-19h174v-99h-647v319z m440-604v-57h-188v299h68v-242h120z m-482-57l87 151-84 148h78l26-54c9-19 16-33 23-50h0c8 19 13 32 21 50l25 54h78l-85-146 89-153h-78l-27 54c-11 21-19 37-27 54h-1c-6-18-14-33-23-54l-25-54h-77v0z m689-250h-647v189h647v-189z m-94 245c-34 0-68 9-85 19l14 56c18-10 46-19 75-19 31 0 47 13 47 32 0 19-14 30-50 43-50 17-82 44-82 88 0 51 43 90 113 90 34 0 59-7 77-15l-15-55c-12 6-34 15-63 15-29 0-44-14-44-29 0-19 17-28 56-42 53-20 78-47 78-90 0-50-39-93-121-93z" horiz-adv-x="1000" />

<glyph glyph-name="waiter" unicode="&#xe85d;" d="M373 705c-6-5-10-12-10-20v-86c0-8 4-15 10-20 6-5 14-6 22-4l67 19v-2c0-6 6-12 13-12h50c7 0 15 6 15 12v2l66-19c8-2 16-1 22 4 6 5 11 12 11 20v86c0 8-5 15-11 20-6 4-14 6-21 4l-67-20v2c0 7-8 13-15 13h-50c-7 0-13-6-13-13v-2l-67 20c-8 2-16 0-22-4z m254 96h-51l140-108-216-683-216 683 140 108h-51c-200 0-373-167-373-366v-452c0-47 38-84 84-84h832c46 0 84 37 84 84v452c0 199-173 366-373 366z m75-549c-5 0-10 3-12 7-3 5-3 11 0 15l50 74c6 8 15 13 25 13 11 0 20-5 26-13l49-74c3-4 4-10 1-15-2-4-7-7-12-7h-127z" horiz-adv-x="1000" />

<glyph glyph-name="wifi" unicode="&#xe85e;" d="M625 288c103 0 197-43 265-110l-88-89c-46 45-108 74-177 74s-131-29-177-74l-88 89c68 67 162 110 265 110z m-442 66c118 119 275 184 442 184s324-65 442-184l-88-88c-95 95-220 147-354 147s-259-52-354-147l-88 88z m783 365c104-44 197-107 278-188v0l-89-88c-141 141-330 220-530 220s-389-78-530-220l-89 88c81 81 174 144 279 188 107 45 222 69 340 69s233-24 341-69z m-403-744c0 35 28 63 62 63s63-28 63-63c0-35-28-63-63-63s-62 28-62 63z" horiz-adv-x="1250" />

<glyph glyph-name="transfer" unicode="&#xe85f;" d="M0 649c0 19 15 19 15 19 64 0 554 0 640 0 28 0 46 0 46 0s0 66 0 108c0 42 31 10 31 10s236-181 261-206c17-18-3-35-3-35l-252-213c0 0-30-32-30 3 0 34 0 117 0 117s-20 0-51 0c-88 0-573 0-639 0 0 0-18-4-18 22 0 28 0 155 0 175z m1000-417c0 20-15 19-15 19-64 0-554 0-640 0-28 0-46 0-46 0s0 67 0 109c0 42-31 10-31 10s-236-182-261-206c-17-18 3-35 3-35l252-213c0 0 30-32 30 2-1 35 0 118 0 118s20 0 51 0c88 0 573 0 639 0 0 0 18-5 18 22 0 28 0 155 0 174z" horiz-adv-x="1000" />

<glyph glyph-name="right-arrow" unicode="&#xe860;" d="M984 389l-361 361c-10 10-24 16-39 16-14 0-28-6-38-16l-33-33c-11-10-16-24-16-38 0-15 5-29 16-40l210-211h-669c-30 0-54-23-54-54v-46c0-30 24-56 54-56h672l-213-212c-11-11-16-24-16-39 0-14 5-28 16-38l33-33c10-10 24-16 38-16 15 0 29 6 39 16l361 361c10 11 16 24 16 39 0 15-6 29-16 39z" horiz-adv-x="1000" />

<glyph glyph-name="left-arrow" unicode="&#xe861;" d="M944 428l1 0h-669l211 211c10 10 16 24 16 39 0 14-6 28-16 39l-33 32c-10 11-24 16-39 16-14 0-28-5-38-16l-361-360c-10-10-16-24-16-39 0-15 6-28 16-39l361-360c10-11 24-16 38-16 15 0 29 5 39 16l33 32c10 11 16 24 16 39 0 15-6 28-16 38l-213 212h671c30 0 55 26 55 56v46c0 31-26 54-56 54z" horiz-adv-x="1000" />

<glyph glyph-name="down-arrow" unicode="&#xe862;" d="M769 243c21 20 53 20 73 0 20-21 20-53 0-73l-305-305c-9-9-22-15-37-15-14 0-27 6-37 15l-304 305c-21 20-21 52 0 73s52 20 72 0l218-218v774c0 29 23 51 51 51 29 0 51-22 51-51v-774l218 218z" horiz-adv-x="1000" />

<glyph glyph-name="export-doc" unicode="&#xe863;" d="M957-113v651c0 10-4 20-12 27l-296 275c-7 6-16 10-25 10h-458c-21 0-37-17-37-37v-411c0-20 16-37 37-37s37 17 37 37v374h374v-282c0-20 16-37 37-37h263c2 0 5 0 6 1v-534h-680v147c0 20-17 37-37 37s-37-17-37-37v-184c0-20 16-37 37-37h754c21 0 37 17 37 37z m-307 851l223-207h-223v207z m-607-495c0-21 17-37 37-37h383l-118-106c-16-13-17-36-3-52 7-8 17-12 27-12 9 0 18 3 25 9l191 171c8 6 13 17 13 27s-5 21-13 28l-191 170c-15 14-39 13-52-3-14-15-13-38 3-52l120-107h-385c-20 0-37-16-37-36z" horiz-adv-x="1000" />

<glyph glyph-name="abc" unicode="&#xe864;" d="M280 392c3-8 11-14 20-14h58c7 0 13 3 17 9s5 13 3 19l-131 348c-3 8-11 14-20 14h-72c-8 0-16-6-19-14l-135-348c-2-7-1-14 3-19 4-6 10-10 17-10h53c9 0 16 6 19 14l28 76h133l26-75z m-134 146l44 131 40-131h-84z m268-160h105c34 0 97 0 138 47 22 26 25 77 17 102-9 25-25 42-53 54 21 11 36 27 44 46 12 30 6 73-15 100-29 36-79 41-125 41l-111 0c-11 0-21-10-21-21v-348c0-12 10-21 21-21z m164 97c-6-12-19-24-71-24h-14v91l19 0c31 0 49-3 62-20 9-12 9-35 4-47z m-8 163c-9-15-21-24-60-24h-17v81l20 0c27 0 43-3 53-17 8-11 8-31 4-40z m428-192c0 6-4 12-9 16-6 4-13 4-19 2-50-18-84-18-116-2-39 20-59 54-61 104-1 43 6 91 56 119 15 8 32 12 51 12 26 0 51-7 68-13 6-3 13-2 19 2 6 3 9 9 9 16l2 37c1 10-6 19-15 21-21 6-54 12-91 12-41 0-76-7-106-22-81-43-95-123-96-156-2-30-2-133 84-190 41-26 89-31 123-31 29 0 61 4 88 12 9 3 16 11 15 21l-2 40z m-75-111c-1 5-4 10-8 14-5 3-10 5-16 4-218-32-401-177-493-264l-175 206c-8 8-21 9-30 2l-67-58c-5-3-7-8-8-14s2-11 5-15l222-260c11-12 27-20 42-22 2 0 4 0 8 0 11 0 32 2 49 21 2 3 214 237 464 274 12 2 19 12 18 24l-11 88z" horiz-adv-x="1000" />

<glyph glyph-name="up-arrow" unicode="&#xe865;" d="M892 485c26-26 26-68 0-94-13-13-30-20-47-20s-34 7-47 20l-231 231v-705c0-37-30-67-67-67s-67 30-67 67v705l-231-231c-26-26-68-26-94 0s-26 68 0 94l345 345c12 13 29 20 47 20 18 0 35-7 47-20l345-345z" horiz-adv-x="1000" />

<glyph glyph-name="download" unicode="&#xe866;" d="M868 17h-736c-45 0-82-38-82-84 0-46 37-83 82-83h736c45 0 82 37 82 83 0 46-37 84-82 84z m-429 91c15-15 34-23 54-24 2 0 5-1 7-1 2 0 5 1 7 1 20 1 39 9 54 24l264 265c33 33 33 86 0 119-33 33-87 33-120 0l-122-122v397c0 46-37 83-83 83-46 0-83-37-83-83v-397l-122 122c-33 33-86 33-119 0-33-33-33-86 0-119l263-265z" horiz-adv-x="1000" />

<glyph glyph-name="from" unicode="&#xe867;" d="M0 850h125v-1000h-125v1000z m188-625h500v-187l312 312-312 313v-188h-500z" horiz-adv-x="1000" />

<glyph glyph-name="to" unicode="&#xe868;" d="M875 850h125v-1000h-125v1000z m-375-375h-500v-250h500v-187l313 312-313 313z" horiz-adv-x="1000" />

<glyph glyph-name="move" unicode="&#xe869;" d="M687 460l-114 114-203-203-162 162 203 203-114 114 390 0v-390z m-374-610h390l-114 114 204 203-163 162-203-203-114 114 0-390z" horiz-adv-x="1000" />

<glyph glyph-name="percent" unicode="&#xe86a;" d="M947 293c-35 41-83 61-145 61-41 0-77-10-107-29-31-19-53-47-68-82-15-35-22-73-22-113s8-77 22-113 37-63 68-82c30-19 66-29 107-29 62 0 110 20 145 61s53 95 53 163c0 68-18 122-53 163z m-84-284c-13-15-32-23-58-23-25 0-44 8-57 23-21 24-31 62-31 114 0 52 10 90 31 113 13 16 32 24 57 24 26 0 45-8 58-23 21-24 31-62 31-114 0-52-10-90-31-114z m-521 724c-35 41-83 61-145 61-41 0-77-10-107-29-31-19-54-47-68-82-15-35-22-73-22-113s7-77 22-113c15-35 37-63 68-82 30-19 66-29 107-29 62 0 110 21 145 61 35 41 53 95 53 163s-18 122-53 163z m-84-284c-13-15-33-22-58-22-26 0-45 7-57 22-21 24-31 62-31 114 0 52 10 90 31 113 12 16 31 24 57 24 25 0 45-8 58-23 21-24 31-62 31-114 0-52-10-90-31-114z m542 341l-477-883h-118l476 883h119z" horiz-adv-x="1000" />

<glyph glyph-name="bars" unicode="&#xe86b;" d="M983-8h-16v616h-200v-616h-50v750h-200v-750h-50v233h-200v-233h-50v383h-200v-383c-9 0-17-8-17-17s8-17 17-17h200 50 200 50 200 50 200 16c10 0 17 8 17 17s-7 17-17 17z" horiz-adv-x="1000" />

<glyph glyph-name="pie" unicode="&#xe86c;" d="M546 845v-474l419-156c22 54 35 113 35 176 0 251-203 454-454 454z m-91-81c-251 0-455-204-455-455 0-251 204-454 455-454 188 0 350 115 419 278l-419 157v474z" horiz-adv-x="1000" />

<glyph glyph-name="day" unicode="&#xe86d;" d="M809 724v101c0 14 8 25 18 25s17-11 17-25v-101c0-14-8-25-17-25-10 0-18 11-18 25z m-317-25c10 0 18 11 18 25v101c0 14-8 25-18 25s-17-11-17-25v-101c0-14 8-25 17-25z m-326 0c10 0 18 11 18 25v101c0 14-8 25-18 25s-17-11-17-25v-101c0-14 8-25 17-25z m822-88h-2c1-4 2-8 2-13v-672c0-42-34-76-74-76h-828c-40 0-74 34-74 76v672c0 5 1 9 2 13h-2v96c0 43 34 78 74 78h43v-61c0-25 16-45 37-45 22 0 38 20 38 45v61h251v-61c0-25 16-45 37-45 21 0 38 20 38 45v61h259v-61c0-25 17-45 38-45 21 0 38 20 38 45v61h49c40 0 74-35 74-78v-96z m-67-633l0 614c0 6-1 13-3 19h-845c-2-6-3-13-3-19v-614c0-38 29-69 64-69h723c35 0 64 31 64 69z m-776 444l19-83 90 42h1v-374h107v473h-91l-126-58z m531-323h0l43 36c70 62 126 125 126 205 0 85-58 148-166 148-63 0-119-22-154-49l31-79c25 19 61 39 101 39 55 0 78-31 78-69-1-55-51-109-155-202l-61-54v-67h336v91h-179c0 0 0 1 0 1z" horiz-adv-x="1000" />

<glyph glyph-name="month" unicode="&#xe86e;" d="M313 381v-62c0-17-14-31-32-31h-62c-17 0-31 14-31 31v62c0 18 14 32 31 32h62c18 0 32-14 32-32z m-32-218h-62c-17 0-31-14-31-32v-62c0-17 14-31 31-31h62c18 0 32 14 32 31v62c0 18-14 32-32 32z m250 250h-62c-17 0-31-14-31-32v-62c0-17 14-31 31-31h62c18 0 32 14 32 31v62c0 18-14 32-32 32z m0-250h-62c-17 0-31-14-31-32v-62c0-17 14-31 31-31h62c18 0 32 14 32 31v62c0 18-14 32-32 32z m250 250h-62c-17 0-31-14-31-32v-62c0-17 14-31 31-31h62c18 0 32 14 32 31v62c0 18-14 32-32 32z m0-250h-62c-17 0-31-14-31-32v-62c0-17 14-31 31-31h62c18 0 32 14 32 31v62c0 18-14 32-32 32z m-562 500h62c18 0 32 14 32 31v125c0 17-14 31-32 31h-62c-17 0-31-14-31-31v-125c0-17 14-31 31-31z m781-63v-625c0-69-56-125-125-125h-750c-69 0-125 56-125 125v625c0 69 56 125 125 125h31v-31c0-35 28-63 63-63h62c35 0 63 28 63 63v31h312v-31c0-35 28-63 63-63h62c35 0 63 28 63 63v31h31c69 0 125-56 125-125z m-62-125c0 34-28 63-63 63h-750c-34 0-62-29-62-63v-500c0-35 28-63 62-63h750c35 0 63 28 63 63v500z m-219 188h62c18 0 32 14 32 31v125c0 17-14 31-32 31h-62c-17 0-31-14-31-31v-125c0-17 14-31 31-31z" horiz-adv-x="1000" />

<glyph glyph-name="cake" unicode="&#xe86f;" d="M836 379h-307v113c58 14 101 65 101 127 0 11 0 43-54 136-26 44-51 81-52 82-5 8-14 13-24 13-10 0-19-5-24-13-1-1-26-38-52-82-54-93-54-125-54-136 0-62 43-113 101-127v-113h-307c-16 0-29-13-29-29v-181c12-3 23-6 34-9 27-8 53-16 105-16 0 0 0 0 0 0 0 0 0 0 0 0 52 0 78 8 105 16 29 8 60 18 121 18 0 0 0 0 0 0 61 0 92-10 121-18 27-8 53-16 105-16 53 0 78 8 105 16 11 3 22 6 35 9v181c0 16-14 29-30 29z m135-470h-105v200c-6-2-12-4-18-6-30-8-61-18-122-18 0 0 0 0 0 0 0 0 0 0 0 0-61 0-91 10-121 18-27 8-53 16-105 16 0 0 0 0 0 0-52 0-78-8-105-16-29-8-60-18-121-18 0 0 0 0 0 0 0 0 0 0 0 0 0 0 0 0 0 0-61 0-92 10-122 18-6 2-11 4-17 6v-200h-106c-16 0-29-14-29-30s13-29 29-29h135 672 135c16 0 29 13 29 29 0 16-13 30-29 30z" horiz-adv-x="1000" />

<glyph glyph-name="candle" unicode="&#xe870;" d="M541 72v64c117 19 207 121 207 244 0 125-15 265-229 460-11 10-27 13-41 8-14-5-24-18-26-33-24-182-200-315-200-435 0-128 97-234 222-247v-60c-131-5-233-43-233-89v-91c0-24 19-43 43-43h432c24 0 43 19 43 43v91c0 44-94 81-218 88z m-159 323c3 61 96 124 113 215 2 8 7 14 14 16 7 2 15 0 20-5 103-105 107-176 104-239-3-55-42-100-92-114v74c0 19-15 34-34 34-18 0-33-15-33-34v-75c-56 16-96 68-92 128z" horiz-adv-x="1000" />

<glyph glyph-name="linkedin" unicode="&#xe871;" d="M1000 242v-370h-214v345c0 87-31 146-109 146-59 0-94-40-110-78-5-14-7-33-7-53v-360h-214c0 0 3 584 0 645h214v-91c0-1-1-2-1-2h1v2c29 44 79 106 193 106 141 0 247-92 247-290z m-879 586c-73 0-121-48-121-112 0-61 47-111 119-111h1c75 0 121 50 121 111-1 64-46 112-120 112z m-108-956h214v645h-214v-645z" horiz-adv-x="1000" />

<glyph glyph-name="handshake" unicode="&#xe872;" d="M1000 531c0 7-3 15-9 20l-250 249c-12 11-30 11-42 0l-72-73c-43 4-86 0-127-13-41 13-84 17-127 13l-72 73c-12 11-30 11-42 0l-250-249c-6-5-9-13-9-20s3-16 9-21l74-73c-4-44 1-88 15-130 8-26 20-51 34-74l-13-13c-34-34-34-90 0-124 9-8 18-15 28-19-19-33-15-77 14-106 29-29 72-33 106-14 4-10 10-19 18-27 34-35 90-34 124 0l8 8 18-18c1-1 2-2 3-3 17-17 39-26 62-26 23 0 45 10 62 26 16 16 11 10 21 21 10-11 31-34 70-34 23 0 45 9 62 26 8 8 14 17 18 27 34-19 78-14 106 14 29 29 34 73 14 106 10 4 20 11 28 19 34 34 34 90 0 124l-13 13c38 60 55 133 49 204l74 73c6 5 9 13 9 21z m-839-394c-12 11-12 30 0 41l8 8c2-2 5-5 7-8l34-33-8-8c-11-11-30-11-41 0z m83-124c-12-12-30-12-42 0-11 11-11 30 0 41l49 49 42-41-49-49z m124-42c-11-11-30-11-41 0-6 6-9 13-9 21 0 8 3 15 9 21 0 0 0 0 0 0l7 7 42-41-8-8z m471 166c-11-11-30-11-41 0 0 0 0 0 0 0l-207 207c-12 12-30 12-42 0-11-11-11-30 0-41l249-249c11-11 11-30 0-41-12-12-30-12-42 0-13 13-234 234-248 248-12 12-30 12-42 0-11-11-11-30 0-41l208-207c11-12 11-30-1-42-11-11-29-11-41 0l-207 207c-12 12-30 12-42 0-11-11-11-30 0-41l158-158c-9-10-5-5-20-20 0 0 0 0 0 0-6-6-13-9-21-9-8 0-15 3-21 9 0 0 0 0 0 0-17 17-243 242-261 261-59 59-87 141-75 224 1 9-2 18-8 25l-64 62 209 207 62-62c7-7 16-10 25-9 14 2 29 3 43 3-15-11-29-23-42-36-36-36-134-134-166-165-34-35-34-90 0-125 17-17 40-25 62-25 23 0 45 8 63 25l117 118c38-14 79-16 118-6l277-278c12-11 12-29 0-41z m26 332c-6-7-9-16-8-25 8-58-3-118-32-168l-205 204c14 9 27 18 38 30 12 11 12 30 0 41-11 12-30 12-41 0-44-43-111-55-167-28-11 5-25 3-33-6l-132-131c-11-12-30-12-41 0-6 5-9 13-9 20 0 8 3 16 9 21 34 34 132 132 165 166 0 0 0 0 0 0 59 59 141 86 224 74 9-1 19 2 25 9l62 62 209-207-64-62z" horiz-adv-x="1000" />

<glyph glyph-name="youtube" unicode="&#xe873;" d="M958 628c-28 48-57 57-117 60-60 4-210 6-341 6-131 0-281-2-341-6-60-3-89-12-117-60-28-49-42-132-42-278 0 0 0 0 0 0 0 0 0 0 0 0v0c0-146 14-229 42-277 28-48 57-57 117-61 60-4 210-6 341-6 131 0 281 2 341 6 60 4 89 13 117 61 28 48 42 131 42 277 0 0 0 0 0 0 0 0 0 0 0 0 0 146-14 229-42 278z m-583-465v375l313-188-313-187z" horiz-adv-x="1000" />

<glyph glyph-name="twitter" unicode="&#xe874;" d="M1000 660c-37-16-77-27-118-32 42 25 75 65 90 113-40-24-83-40-130-50-38 40-91 65-150 65-113 0-205-92-205-205 0-16 2-32 5-47-170 9-321 90-422 215-18-31-28-66-28-104 0-71 36-134 91-170-33 1-66 10-93 25 0 0 0-1 0-2 0-100 71-182 164-202-16-4-35-6-53-6-14 0-27 0-39 3 26-81 102-141 191-143-69-54-158-87-254-87-17 0-33 1-49 3 91-59 198-92 315-92 377 0 583 312 583 583 0 9 0 18-1 27 41 29 75 65 103 106z" horiz-adv-x="1000" />

<glyph glyph-name="instagram" unicode="&#xe875;" d="M724 850h-448c-152 0-276-124-276-276v-448c0-152 124-276 276-276h448c152 0 276 124 276 276v448c0 152-124 276-276 276z m187-724c0-103-84-187-187-187h-448c-103 0-187 84-187 187v448c0 103 84 187 187 187h448c103 0 187-84 187-187v-448z m-411 482c-142 0-258-116-258-258 0-142 116-258 258-258s258 116 258 258c0 142-116 258-258 258z m0-427c-93 0-169 76-169 169 0 93 76 169 169 169s169-76 169-169c0-93-76-169-169-169z m269 502c-18 0-34-7-46-19-13-12-20-29-20-46 0-17 7-34 20-46 12-12 28-19 46-19 17 0 33 7 46 19 12 12 19 29 19 46 0 17-7 34-19 46-13 12-29 19-46 19z" horiz-adv-x="1000" />

<glyph glyph-name="facebook" unicode="&#xe876;" d="M750 850l-130 0c-145 0-239-97-239-246v-114h-131c-11 0-20-9-20-20v-164c0-12 9-21 20-21h131v-415c0-11 9-20 20-20h170c11 0 20 9 20 20v415h153c11 0 20 9 20 21l0 164c0 5-2 11-6 14-3 4-9 6-14 6h-153v97c0 46 11 69 72 69l87 0c11 0 20 10 20 21v152c0 12-9 21-20 21z" horiz-adv-x="1000" />

<glyph glyph-name="google-plus" unicode="&#xe877;" d="M324 733c68 0 129-35 164-83l84 84c-50 65-146 116-248 116-178 0-324-144-324-322s146-322 324-322c148 0 272 99 310 234 8 28 13 57 13 88v29h-293v-117h155c-32-69-103-117-185-117-113 0-207 92-207 205s94 205 207 205z m0 0m586-59h-117v-88h-88v-117h88v-88h117v88h90v117h-90z m0 0" horiz-adv-x="1000" />

<glyph glyph-name="shopping-cart" unicode="&#xe878;" d="M750 100c-69 0-125-56-125-125s56-125 125-125 125 56 125 125-56 125-125 125z m-313 0c-69 0-125-56-125-125s56-125 125-125c70 0 125 56 125 125s-55 125-125 125z m551 537c-12 16-30 26-50 26h-643l-48 144c-9 26-33 43-60 43h-124c-35 0-63-28-63-62 0-35 28-63 63-63h79l174-520c8-25 32-42 59-42h438c27 0 50 17 59 42l125 375c6 19 3 40-9 57z" horiz-adv-x="1000" />

<glyph glyph-name="whatsapp" unicode="&#xe879;" d="M500 850h0c-276 0-500-224-500-500 0-109 35-211 95-293l-62-186 192 62c79-53 173-83 275-83 276 0 500 224 500 500s-224 500-500 500z m291-706c-12-34-60-62-98-71-26-5-60-10-175 38-147 61-242 210-249 220-7 10-59 79-59 151s36 106 51 121c12 13 32 18 51 18 6 0 12 0 17 0 14-1 22-2 31-25 12-29 42-101 45-108 4-7 7-17 2-27-4-10-8-15-16-23-7-9-14-15-22-24-6-8-14-17-5-31 8-15 37-63 81-101 55-50 101-66 117-72 12-5 26-4 35 5 11 12 25 32 39 52 10 14 23 16 36 11 14-5 85-40 100-48 14-7 24-10 28-17 3-6 3-35-9-69z" horiz-adv-x="1000" />

<glyph glyph-name="smartphone" unicode="&#xe87a;" d="M719 850h-438c-51 0-93-42-93-94v-812c0-52 42-94 93-94h438c51 0 94 42 94 94v812c0 52-43 94-94 94z m-344-47h250v-31h-250v31z m125-891c-34 0-62 28-62 63s28 63 62 63 63-28 63-63-28-63-63-63z m250 188h-500v625h500v-625z" horiz-adv-x="1000" />

<glyph glyph-name="graduated" unicode="&#xe87b;" d="M936 33v-157c0-14-12-26-26-26h-820c-14 0-26 12-26 26v157c0 65 39 123 100 148l176 77c7 3 14 3 21 0 7-3 12-8 14-15l52-142 21 37-14 40c-3 8-2 17 3 23 5 7 13 12 21 12h84c8 0 16-5 21-12 5-6 6-15 3-23l-14-40 22-37 51 142c2 7 7 12 14 15 7 3 14 3 21 0l176-77c61-25 100-83 100-148z m-75 817h-722c-14 0-26-12-26-26 0-13 10-24 24-25v-194c-10-8-16-20-16-33 0-24 19-43 41-43 23 0 42 19 42 43 0 13-6 25-16 33v193h78v-103h468v103h127c14 0 26 12 26 26 0 14-12 26-26 26z m-129-311c-6 9-12 14-18 18 0 10 0 24-3 40 1 8 2 31-1 58h-210-210c-3-27-2-50-1-58-2-16-3-30-3-40-6-4-12-9-18-18-12-19-15-45-6-77 15-58 50-73 70-76 12-24 37-70 62-93 11-10 25-18 41-25 21-8 43-12 65-12s44 4 65 12c17 7 30 15 41 25 25 23 50 69 62 93 20 3 55 18 70 76 9 32 6 58-6 77z" horiz-adv-x="1000" />

<glyph glyph-name="send" unicode="&#xe87c;" d="M190 183h-169c-12 0-21-9-21-20 0-12 9-21 21-21h169c11 0 21 9 21 21 0 11-10 20-21 20z m21 125h-190c-12 0-21-9-21-20s9-21 21-21h190c11 0 21 9 21 21s-10 20-21 20z m21 125h-211c-12 0-21-9-21-20s9-21 21-21h211c11 0 21 9 21 21s-10 20-21 20z m162 81c83-82 178-174 207-200 4-4 9-6 14-6 3 0 5 1 8 1 1 1 6 3 12 7 37 25 158 104 271 178l78 51c6 4 9 9 10 16 0 6-2 12-6 16-15 15-35 23-56 23h-523c-19 0-37-6-52-18-5-4-8-9-8-15 0-6 2-12 6-16l39-37z m597-30c-7 5-16 5-24 0l-47-31c-110-72-225-147-261-172-29-19-65-18-87 2-29 27-124 119-209 202l-11 11c-6 5-14 7-21 5-7-2-13-8-15-16l-62-292c-1-5-1-10-1-16 0-42 35-77 78-77h523c40 0 74 28 83 66l63 296c1 9-2 17-9 22z m-970 33h232c11 0 21 9 21 21s-10 20-21 20h-232c-12 0-21-9-21-20s9-21 21-21z" horiz-adv-x="1000" />

<glyph glyph-name="landphone" unicode="&#xe87d;" d="M506 611c168-1 274 9 288-178h205c0 290-252 329-499 329-247 0-499-39-499-329h204c16 191 133 180 301 178z m-403-271c50 0 92-3 101 47 1 6 2 14 2 23h-2-204c0-74 46-70 103-70z m692 70h-2c0-9 1-17 2-23 10-46 52-43 102-43 57 0 103-4 103 66h-205z m-100 50v29c0 13-15 13-34 13h-30c-18 0-33 0-33-13v-25-20h-214v20 25c0 13-15 13-34 13h-30c-19 0-34 0-34-13v-29-26c-48-51-208-266-214-292l0-175c0-16 13-29 30-29h778c16 0 29 13 29 29v176c-6 25-165 240-214 291v26z m-322-342c-16 0-28 13-28 29s12 28 28 28 28-13 28-28-12-29-28-29z m0 98c-16 0-28 12-28 28s12 28 28 28 28-12 28-28-12-28-28-28z m0 97c-16 0-28 12-28 28 0 16 12 29 28 29s28-13 28-29c0-16-12-28-28-28z m117-195c-16 0-29 13-29 29s13 28 29 28c15 0 28-13 28-28s-13-29-28-29z m0 98c-16 0-29 12-29 28s13 28 29 28c15 0 28-12 28-28s-13-28-28-28z m0 97c-16 0-29 12-29 28 0 16 13 29 29 29 15 0 28-13 28-29 0-16-13-28-28-28z m116-195c-15 0-28 13-28 29s13 28 28 28 29-13 29-28-13-29-29-29z m0 98c-15 0-28 12-28 28s13 28 28 28 29-12 29-28-13-28-29-28z m0 97c-15 0-28 12-28 28 0 16 13 29 28 29s29-13 29-29c0-16-13-28-29-28z" horiz-adv-x="1000" />

<glyph glyph-name="mail" unicode="&#xe87e;" d="M500 391l-500 392v-583h1000v583z m0 0m489 458h-978l489-384z m0 0" horiz-adv-x="1000" />

<glyph glyph-name="xls" unicode="&#xe87f;" d="M969 694h-406v94c0 9-5 18-12 24-7 6-16 8-25 6l-500-94c-15-2-26-15-26-30v-688c0-15 11-28 26-31l500-93c1-1 3-1 5-1 8 0 15 3 20 7 7 6 12 15 12 24v94h406c17 0 31 14 31 32v625c0 17-14 31-31 31z m-539-448c11-13 10-33-3-44-6-6-13-8-21-8-8 0-17 3-23 10l-91 104-80-102c-6-8-15-12-24-12-7 0-14 2-20 6-13 11-16 31-5 44l87 112-86 98c-11 13-10 33 3 45 13 11 33 10 44-3l78-90 93 119c10 14 30 17 44 6 13-11 16-30 5-44l-100-128 99-113z m508-177h-375v62h93c18 0 32 14 32 32 0 17-14 31-32 31h-93v62h93c18 0 32 14 32 32 0 17-14 31-32 31h-93v62h93c18 0 32 14 32 32 0 17-14 31-32 31h-93v62h93c18 0 32 14 32 32 0 17-14 31-32 31h-93v62h375v-562z m-94 500h-63c-17 0-31-14-31-31 0-18 14-32 31-32h63c17 0 31 14 31 32 0 17-14 31-31 31z m0-125h-63c-17 0-31-14-31-31 0-18 14-32 31-32h63c17 0 31 14 31 32 0 17-14 31-31 31z m0-125h-63c-17 0-31-14-31-31 0-18 14-32 31-32h63c17 0 31 14 31 32 0 17-14 31-31 31z m0-125h-63c-17 0-31-14-31-31 0-18 14-32 31-32h63c17 0 31 14 31 32 0 17-14 31-31 31z" horiz-adv-x="1000" />

<glyph glyph-name="pdf" unicode="&#xe880;" d="M992 118c-36 64-192 105-329 113-13 13-26 27-38 42-119 135-167 331-185 435-2 23-4 41-6 55-2 10-5 33-28 33-8 0-15-3-20-9-9-10-8-20-6-32 2-13 4-32 8-53 10-105 14-307-67-466-8-17-17-33-25-48-152-45-275-124-293-189-7-24-1-47 16-64 19-21 42-31 68-31 72 0 155 80 244 238 40 11 80 18 119 22 15 2 39 5 54 7 41 6 87 9 135 7 110-114 200-172 268-172 36 0 66 17 85 49 11 20 11 42 0 63z m-905-161c-11 0-21 5-30 15-4 4-5 7-3 13 9 34 87 91 201 133-64-101-126-161-168-161z m409 267c-15-3-38-6-52-7-26-3-52-7-79-12 1 2 2 4 3 6 40 79 65 173 74 281 37-103 85-188 143-254 1-2 3-4 5-6-34-1-65-4-94-8z m449-143c-9-15-21-22-39-22h0c-42 0-107 40-185 113 120-15 208-52 224-80 2-4 2-7 0-11z" horiz-adv-x="1000" />
</font>
</defs>
</svg>
